<svg width="519" height="286" viewBox="0 0 519 286" fill="none" xmlns="http://www.w3.org/2000/svg">
<rect width="519" height="286" rx="8" fill="#CFFDD0"/>
<rect x="479.87" y="107.161" width="129.691" height="53" transform="rotate(-160 479.87 107.161)" fill="#26A12A" fill-opacity="0.4"/>
<path d="M42.093 69V52.9H45.543V69H42.093ZM43.68 62.606V59.639H52.006V62.606H43.68ZM43.68 56.005V52.9H52.972V56.005H43.68ZM59.9556 69.23C58.9436 69.23 58.0312 68.954 57.2186 68.402C56.4059 67.85 55.7619 67.0987 55.2866 66.148C54.8112 65.1973 54.5736 64.1087 54.5736 62.882C54.5736 61.6553 54.8112 60.5743 55.2866 59.639C55.7772 58.6883 56.4366 57.9447 57.2646 57.408C58.0926 56.856 59.0356 56.58 60.0936 56.58C60.6916 56.58 61.2359 56.672 61.7266 56.856C62.2326 57.0247 62.6696 57.2623 63.0376 57.569C63.4209 57.8757 63.7429 58.2283 64.0036 58.627C64.2642 59.0257 64.4482 59.455 64.5556 59.915L63.8656 59.8V56.833H67.1086V69H63.8196V66.079L64.5556 66.01C64.4329 66.4393 64.2336 66.8457 63.9576 67.229C63.6816 67.6123 63.3366 67.9573 62.9226 68.264C62.5239 68.5553 62.0716 68.793 61.5656 68.977C61.0596 69.1457 60.5229 69.23 59.9556 69.23ZM60.8526 66.401C61.4659 66.401 62.0026 66.2553 62.4626 65.964C62.9226 65.6727 63.2752 65.2663 63.5206 64.745C63.7812 64.2083 63.9116 63.5873 63.9116 62.882C63.9116 62.192 63.7812 61.5863 63.5206 61.065C63.2752 60.5437 62.9226 60.1373 62.4626 59.846C62.0026 59.5393 61.4659 59.386 60.8526 59.386C60.2546 59.386 59.7256 59.5393 59.2656 59.846C58.8209 60.1373 58.4682 60.5437 58.2076 61.065C57.9469 61.5863 57.8166 62.192 57.8166 62.882C57.8166 63.5873 57.9469 64.2083 58.2076 64.745C58.4682 65.2663 58.8209 65.6727 59.2656 65.964C59.7256 66.2553 60.2546 66.401 60.8526 66.401ZM70.383 69V56.833H73.534L73.649 60.743L73.097 59.938C73.281 59.3093 73.58 58.742 73.994 58.236C74.408 57.7147 74.891 57.3083 75.443 57.017C76.0103 56.7257 76.6007 56.58 77.214 56.58C77.4747 56.58 77.7277 56.603 77.973 56.649C78.2183 56.695 78.4253 56.7487 78.594 56.81L77.72 60.398C77.536 60.306 77.3137 60.2293 77.053 60.168C76.7923 60.0913 76.524 60.053 76.248 60.053C75.88 60.053 75.535 60.122 75.213 60.26C74.9063 60.3827 74.638 60.5667 74.408 60.812C74.178 61.042 73.994 61.318 73.856 61.64C73.7333 61.962 73.672 62.3147 73.672 62.698V69H70.383ZM80.445 69V56.833H83.596L83.665 59.156L83.182 59.248C83.3506 58.8493 83.573 58.489 83.849 58.167C84.125 57.845 84.447 57.569 84.815 57.339C85.1983 57.109 85.597 56.9327 86.011 56.81C86.425 56.672 86.839 56.603 87.253 56.603C87.8816 56.603 88.449 56.7027 88.955 56.902C89.461 57.1013 89.8903 57.4157 90.243 57.845C90.5956 58.259 90.8716 58.811 91.071 59.501L90.565 59.455L90.726 59.087C90.9253 58.719 91.1783 58.3893 91.485 58.098C91.7916 57.7913 92.1366 57.5307 92.52 57.316C92.9033 57.086 93.302 56.9097 93.716 56.787C94.13 56.6643 94.5363 56.603 94.935 56.603C95.8856 56.603 96.6753 56.7947 97.304 57.178C97.9326 57.546 98.4003 58.1057 98.707 58.857C99.029 59.6083 99.19 60.5283 99.19 61.617V69H95.924V61.847C95.924 61.295 95.8473 60.8427 95.694 60.49C95.5406 60.1373 95.3183 59.8767 95.027 59.708C94.7356 59.524 94.36 59.432 93.9 59.432C93.5473 59.432 93.2176 59.4933 92.911 59.616C92.6196 59.7233 92.359 59.8843 92.129 60.099C91.9143 60.2983 91.7456 60.536 91.623 60.812C91.5003 61.088 91.439 61.3947 91.439 61.732V69H88.173V61.824C88.173 61.318 88.0886 60.8887 87.92 60.536C87.7666 60.168 87.5443 59.892 87.253 59.708C86.9616 59.524 86.6013 59.432 86.172 59.432C85.8193 59.432 85.4896 59.4933 85.183 59.616C84.8916 59.7233 84.6386 59.8843 84.424 60.099C84.2093 60.2983 84.033 60.536 83.895 60.812C83.7723 61.088 83.711 61.387 83.711 61.709V69H80.445ZM109.813 69V52.9H113.263V65.895H120.554V69H109.813ZM128.51 69.23C127.268 69.23 126.156 68.9617 125.175 68.425C124.209 67.873 123.442 67.1217 122.875 66.171C122.323 65.2203 122.047 64.1317 122.047 62.905C122.047 61.6783 122.323 60.5973 122.875 59.662C123.442 58.7113 124.209 57.96 125.175 57.408C126.156 56.856 127.268 56.58 128.51 56.58C129.736 56.58 130.833 56.856 131.799 57.408C132.78 57.96 133.547 58.7113 134.099 59.662C134.651 60.5973 134.927 61.6783 134.927 62.905C134.927 64.1317 134.651 65.2203 134.099 66.171C133.547 67.1217 132.78 67.873 131.799 68.425C130.833 68.9617 129.736 69.23 128.51 69.23ZM128.51 66.378C129.108 66.378 129.644 66.2323 130.12 65.941C130.595 65.6343 130.963 65.2203 131.224 64.699C131.5 64.1623 131.638 63.5643 131.638 62.905C131.638 62.2303 131.5 61.6323 131.224 61.111C130.963 60.5743 130.595 60.1603 130.12 59.869C129.644 59.5623 129.108 59.409 128.51 59.409C127.896 59.409 127.352 59.5623 126.877 59.869C126.401 60.1757 126.026 60.5897 125.75 61.111C125.474 61.6323 125.343 62.2303 125.359 62.905C125.343 63.5643 125.474 64.1623 125.75 64.699C126.026 65.2203 126.401 65.6343 126.877 65.941C127.352 66.2323 127.896 66.378 128.51 66.378ZM141.938 69.23C140.926 69.23 140.014 68.954 139.201 68.402C138.388 67.85 137.744 67.0987 137.269 66.148C136.794 65.1973 136.556 64.1087 136.556 62.882C136.556 61.6553 136.794 60.5743 137.269 59.639C137.76 58.6883 138.419 57.9447 139.247 57.408C140.075 56.856 141.018 56.58 142.076 56.58C142.674 56.58 143.218 56.672 143.709 56.856C144.215 57.0247 144.652 57.2623 145.02 57.569C145.403 57.8757 145.725 58.2283 145.986 58.627C146.247 59.0257 146.431 59.455 146.538 59.915L145.848 59.8V56.833H149.091V69H145.802V66.079L146.538 66.01C146.415 66.4393 146.216 66.8457 145.94 67.229C145.664 67.6123 145.319 67.9573 144.905 68.264C144.506 68.5553 144.054 68.793 143.548 68.977C143.042 69.1457 142.505 69.23 141.938 69.23ZM142.835 66.401C143.448 66.401 143.985 66.2553 144.445 65.964C144.905 65.6727 145.258 65.2663 145.503 64.745C145.764 64.2083 145.894 63.5873 145.894 62.882C145.894 62.192 145.764 61.5863 145.503 61.065C145.258 60.5437 144.905 60.1373 144.445 59.846C143.985 59.5393 143.448 59.386 142.835 59.386C142.237 59.386 141.708 59.5393 141.248 59.846C140.803 60.1373 140.451 60.5437 140.19 61.065C139.929 61.5863 139.799 62.192 139.799 62.882C139.799 63.5873 139.929 64.2083 140.19 64.745C140.451 65.2663 140.803 65.6727 141.248 65.964C141.708 66.2553 142.237 66.401 142.835 66.401ZM152.365 69V56.833H155.493L155.585 59.317L154.941 59.593C155.11 59.041 155.409 58.5427 155.838 58.098C156.283 57.638 156.812 57.27 157.425 56.994C158.039 56.718 158.683 56.58 159.357 56.58C160.277 56.58 161.044 56.764 161.657 57.132C162.286 57.5 162.754 58.0597 163.06 58.811C163.382 59.547 163.543 60.4593 163.543 61.548V69H160.277V61.801C160.277 61.249 160.201 60.789 160.047 60.421C159.894 60.053 159.656 59.7847 159.334 59.616C159.028 59.432 158.644 59.3553 158.184 59.386C157.816 59.386 157.471 59.4473 157.149 59.57C156.843 59.6773 156.574 59.8383 156.344 60.053C156.13 60.2677 155.953 60.513 155.815 60.789C155.693 61.065 155.631 61.364 155.631 61.686V69H154.021C153.669 69 153.354 69 153.078 69C152.802 69 152.565 69 152.365 69ZM170.767 69.23C169.632 69.23 168.62 69.046 167.731 68.678C166.857 68.2947 166.152 67.7733 165.615 67.114L167.639 65.366C168.114 65.872 168.643 66.24 169.226 66.47C169.809 66.6847 170.391 66.792 170.974 66.792C171.204 66.792 171.411 66.769 171.595 66.723C171.794 66.6617 171.963 66.585 172.101 66.493C172.239 66.3857 172.339 66.263 172.4 66.125C172.477 65.9717 172.515 65.8107 172.515 65.642C172.515 65.3047 172.377 65.0363 172.101 64.837C171.948 64.7603 171.71 64.6683 171.388 64.561C171.066 64.4383 170.652 64.308 170.146 64.17C169.364 63.9707 168.697 63.7407 168.145 63.48C167.608 63.204 167.179 62.8973 166.857 62.56C166.581 62.238 166.366 61.893 166.213 61.525C166.075 61.1417 166.006 60.72 166.006 60.26C166.006 59.708 166.129 59.2097 166.374 58.765C166.619 58.305 166.957 57.914 167.386 57.592C167.831 57.27 168.337 57.0247 168.904 56.856C169.471 56.672 170.069 56.58 170.698 56.58C171.327 56.58 171.94 56.6567 172.538 56.81C173.136 56.9633 173.688 57.1857 174.194 57.477C174.715 57.753 175.168 58.0827 175.551 58.466L173.803 60.398C173.527 60.1373 173.213 59.8997 172.86 59.685C172.523 59.4703 172.17 59.3017 171.802 59.179C171.434 59.0563 171.104 58.995 170.813 58.995C170.552 58.995 170.315 59.018 170.1 59.064C169.901 59.11 169.732 59.179 169.594 59.271C169.456 59.363 169.349 59.4857 169.272 59.639C169.211 59.777 169.18 59.9303 169.18 60.099C169.18 60.2677 169.218 60.4287 169.295 60.582C169.387 60.7353 169.51 60.8657 169.663 60.973C169.832 61.065 170.077 61.1723 170.399 61.295C170.736 61.4177 171.189 61.5557 171.756 61.709C172.492 61.9083 173.113 62.1307 173.619 62.376C174.14 62.6213 174.554 62.905 174.861 63.227C175.122 63.503 175.313 63.8173 175.436 64.17C175.559 64.5227 175.62 64.9137 175.62 65.343C175.62 66.0943 175.405 66.769 174.976 67.367C174.562 67.9497 173.987 68.4097 173.251 68.747C172.515 69.069 171.687 69.23 170.767 69.23Z" fill="black"/>
<path d="M43.684 130.76C43.236 130.76 42.788 130.688 42.34 130.544C41.9 130.408 41.544 130.228 41.272 130.004L41.728 129.044C41.888 129.164 42.076 129.268 42.292 129.356C42.508 129.452 42.736 129.524 42.976 129.572C43.216 129.628 43.452 129.656 43.684 129.656C44.124 129.656 44.492 129.584 44.788 129.44C45.084 129.296 45.308 129.084 45.46 128.804C45.612 128.524 45.688 128.176 45.688 127.76V126.548L45.82 126.632C45.78 126.88 45.648 127.12 45.424 127.352C45.208 127.576 44.936 127.76 44.608 127.904C44.28 128.048 43.944 128.12 43.6 128.12C43 128.12 42.464 127.98 41.992 127.7C41.528 127.412 41.16 127.024 40.888 126.536C40.616 126.04 40.48 125.476 40.48 124.844C40.48 124.212 40.612 123.652 40.876 123.164C41.148 122.668 41.516 122.28 41.98 122C42.452 121.712 42.98 121.568 43.564 121.568C43.804 121.568 44.036 121.6 44.26 121.664C44.484 121.72 44.692 121.804 44.884 121.916C45.076 122.02 45.248 122.136 45.4 122.264C45.552 122.392 45.676 122.528 45.772 122.672C45.868 122.816 45.928 122.952 45.952 123.08L45.688 123.176V121.7H46.924V127.616C46.924 128.12 46.848 128.564 46.696 128.948C46.552 129.34 46.34 129.668 46.06 129.932C45.78 130.204 45.44 130.408 45.04 130.544C44.64 130.688 44.188 130.76 43.684 130.76ZM43.732 126.98C44.124 126.98 44.472 126.888 44.776 126.704C45.08 126.52 45.316 126.268 45.484 125.948C45.652 125.628 45.736 125.26 45.736 124.844C45.736 124.428 45.648 124.06 45.472 123.74C45.304 123.412 45.068 123.156 44.764 122.972C44.468 122.788 44.124 122.696 43.732 122.696C43.348 122.696 43.004 122.792 42.7 122.984C42.404 123.168 42.168 123.424 41.992 123.752C41.824 124.072 41.74 124.436 41.74 124.844C41.74 125.252 41.824 125.62 41.992 125.948C42.168 126.268 42.404 126.52 42.7 126.704C43.004 126.888 43.348 126.98 43.732 126.98ZM51.597 128.12C50.949 128.12 50.373 127.984 49.869 127.712C49.373 127.432 48.981 127.052 48.693 126.572C48.413 126.092 48.273 125.54 48.273 124.916C48.273 124.42 48.353 123.968 48.513 123.56C48.673 123.152 48.893 122.8 49.173 122.504C49.461 122.2 49.801 121.968 50.193 121.808C50.593 121.64 51.025 121.556 51.489 121.556C51.897 121.556 52.277 121.636 52.629 121.796C52.981 121.948 53.285 122.16 53.541 122.432C53.805 122.704 54.005 123.028 54.141 123.404C54.285 123.772 54.353 124.176 54.345 124.616L54.333 125.144H49.185L48.909 124.16H53.265L53.085 124.364V124.076C53.061 123.812 52.973 123.576 52.821 123.368C52.669 123.16 52.477 122.996 52.245 122.876C52.013 122.756 51.761 122.696 51.489 122.696C51.057 122.696 50.693 122.78 50.397 122.948C50.101 123.108 49.877 123.348 49.725 123.668C49.573 123.98 49.497 124.368 49.497 124.832C49.497 125.272 49.589 125.656 49.773 125.984C49.957 126.304 50.217 126.552 50.553 126.728C50.889 126.904 51.277 126.992 51.717 126.992C52.029 126.992 52.317 126.94 52.581 126.836C52.853 126.732 53.145 126.544 53.457 126.272L54.081 127.148C53.889 127.34 53.653 127.508 53.373 127.652C53.101 127.796 52.809 127.912 52.497 128C52.193 128.08 51.893 128.12 51.597 128.12ZM56.4682 128V120.092H57.7042V128H56.4682ZM55.1602 122.9V121.7H59.1682V122.9H55.1602ZM64.713 130.76L65.985 127.82L65.997 128.804L62.853 121.7H64.293L66.261 126.332C66.301 126.412 66.349 126.536 66.405 126.704C66.461 126.864 66.509 127.024 66.549 127.184L66.237 127.256C66.301 127.088 66.361 126.92 66.417 126.752C66.481 126.584 66.541 126.416 66.597 126.248L68.241 121.7H69.705L67.113 128L66.045 130.76H64.713ZM73.3444 128.12C72.7284 128.12 72.1764 127.98 71.6884 127.7C71.2084 127.412 70.8284 127.024 70.5484 126.536C70.2684 126.04 70.1284 125.476 70.1284 124.844C70.1284 124.212 70.2684 123.652 70.5484 123.164C70.8284 122.668 71.2084 122.28 71.6884 122C72.1764 121.712 72.7284 121.568 73.3444 121.568C73.9524 121.568 74.4964 121.712 74.9764 122C75.4644 122.28 75.8484 122.668 76.1284 123.164C76.4084 123.652 76.5484 124.212 76.5484 124.844C76.5484 125.476 76.4084 126.04 76.1284 126.536C75.8484 127.024 75.4644 127.412 74.9764 127.7C74.4964 127.98 73.9524 128.12 73.3444 128.12ZM73.3444 126.992C73.7204 126.992 74.0564 126.9 74.3524 126.716C74.6484 126.524 74.8804 126.268 75.0484 125.948C75.2164 125.62 75.2964 125.252 75.2884 124.844C75.2964 124.428 75.2164 124.06 75.0484 123.74C74.8804 123.412 74.6484 123.156 74.3524 122.972C74.0564 122.788 73.7204 122.696 73.3444 122.696C72.9684 122.696 72.6284 122.792 72.3244 122.984C72.0284 123.168 71.7964 123.424 71.6284 123.752C71.4604 124.072 71.3804 124.436 71.3884 124.844C71.3804 125.252 71.4604 125.62 71.6284 125.948C71.7964 126.268 72.0284 126.524 72.3244 126.716C72.6284 126.9 72.9684 126.992 73.3444 126.992ZM80.1033 128.12C79.6553 128.12 79.2633 128.016 78.9273 127.808C78.5993 127.6 78.3433 127.308 78.1593 126.932C77.9833 126.556 77.8953 126.108 77.8953 125.588V121.7H79.1313V125.252C79.1313 125.62 79.1873 125.94 79.2993 126.212C79.4193 126.476 79.5873 126.68 79.8033 126.824C80.0273 126.968 80.2953 127.04 80.6073 127.04C80.8393 127.04 81.0513 127.004 81.2433 126.932C81.4353 126.852 81.5993 126.744 81.7353 126.608C81.8793 126.472 81.9913 126.308 82.0713 126.116C82.1513 125.924 82.1913 125.716 82.1913 125.492V121.7H83.4273V128H82.1913V126.68L82.4073 126.536C82.3113 126.832 82.1473 127.1 81.9153 127.34C81.6913 127.58 81.4233 127.772 81.1113 127.916C80.7993 128.052 80.4633 128.12 80.1033 128.12ZM85.1609 128V121.7H86.4089V123.68L86.2889 123.2C86.3769 122.896 86.5249 122.62 86.7329 122.372C86.9489 122.124 87.1929 121.928 87.4649 121.784C87.7449 121.64 88.0329 121.568 88.3289 121.568C88.4649 121.568 88.5929 121.58 88.7129 121.604C88.8409 121.628 88.9409 121.656 89.0129 121.688L88.6889 123.032C88.5929 122.992 88.4849 122.96 88.3649 122.936C88.2529 122.904 88.1409 122.888 88.0289 122.888C87.8129 122.888 87.6049 122.932 87.4049 123.02C87.2129 123.1 87.0409 123.216 86.8889 123.368C86.7449 123.512 86.6289 123.684 86.5409 123.884C86.4529 124.076 86.4089 124.288 86.4089 124.52V128H85.1609ZM94.048 128V120.992C94.048 120.632 94.128 120.312 94.288 120.032C94.448 119.752 94.668 119.532 94.948 119.372C95.228 119.212 95.552 119.132 95.92 119.132C96.176 119.132 96.416 119.18 96.64 119.276C96.864 119.372 97.044 119.5 97.18 119.66L96.76 120.608C96.656 120.512 96.54 120.436 96.412 120.38C96.292 120.316 96.176 120.284 96.064 120.284C95.896 120.284 95.752 120.312 95.632 120.368C95.52 120.416 95.436 120.496 95.38 120.608C95.324 120.712 95.296 120.84 95.296 120.992V128H94.672C94.568 128 94.464 128 94.36 128C94.256 128 94.152 128 94.048 128ZM93.04 122.948V121.808H96.784V122.948H93.04ZM100.265 128.12C99.7446 128.12 99.2686 127.976 98.8366 127.688C98.4126 127.4 98.0726 127.008 97.8166 126.512C97.5606 126.016 97.4326 125.456 97.4326 124.832C97.4326 124.2 97.5606 123.64 97.8166 123.152C98.0806 122.656 98.4326 122.268 98.8726 121.988C99.3206 121.708 99.8206 121.568 100.373 121.568C100.701 121.568 101.001 121.616 101.273 121.712C101.545 121.808 101.781 121.944 101.981 122.12C102.189 122.288 102.357 122.484 102.485 122.708C102.621 122.932 102.705 123.172 102.737 123.428L102.461 123.332V121.7H103.709V128H102.461V126.5L102.749 126.416C102.701 126.632 102.601 126.844 102.449 127.052C102.305 127.252 102.117 127.432 101.885 127.592C101.661 127.752 101.409 127.88 101.129 127.976C100.857 128.072 100.569 128.12 100.265 128.12ZM100.589 126.98C100.965 126.98 101.297 126.888 101.585 126.704C101.873 126.52 102.097 126.268 102.257 125.948C102.425 125.62 102.509 125.248 102.509 124.832C102.509 124.424 102.425 124.06 102.257 123.74C102.097 123.42 101.873 123.168 101.585 122.984C101.297 122.8 100.965 122.708 100.589 122.708C100.221 122.708 99.8926 122.8 99.6046 122.984C99.3246 123.168 99.1006 123.42 98.9326 123.74C98.7726 124.06 98.6926 124.424 98.6926 124.832C98.6926 125.248 98.7726 125.62 98.9326 125.948C99.1006 126.268 99.3246 126.52 99.6046 126.704C99.8926 126.888 100.221 126.98 100.589 126.98ZM105.434 128V121.7H106.682V123.68L106.562 123.2C106.65 122.896 106.798 122.62 107.006 122.372C107.222 122.124 107.466 121.928 107.738 121.784C108.018 121.64 108.306 121.568 108.602 121.568C108.738 121.568 108.866 121.58 108.986 121.604C109.114 121.628 109.214 121.656 109.286 121.688L108.962 123.032C108.866 122.992 108.758 122.96 108.638 122.936C108.526 122.904 108.414 122.888 108.302 122.888C108.086 122.888 107.878 122.932 107.678 123.02C107.486 123.1 107.314 123.216 107.162 123.368C107.018 123.512 106.902 123.684 106.814 123.884C106.726 124.076 106.682 124.288 106.682 124.52V128H105.434ZM110.25 128V121.7H111.498V123.044L111.27 123.188C111.334 122.98 111.434 122.78 111.57 122.588C111.714 122.396 111.886 122.228 112.086 122.084C112.294 121.932 112.514 121.812 112.746 121.724C112.986 121.636 113.23 121.592 113.478 121.592C113.838 121.592 114.154 121.652 114.426 121.772C114.698 121.892 114.922 122.072 115.098 122.312C115.274 122.552 115.402 122.852 115.482 123.212L115.29 123.164L115.374 122.96C115.462 122.776 115.582 122.604 115.734 122.444C115.894 122.276 116.074 122.128 116.274 122C116.474 121.872 116.686 121.772 116.91 121.7C117.134 121.628 117.354 121.592 117.57 121.592C118.042 121.592 118.43 121.688 118.734 121.88C119.046 122.072 119.278 122.364 119.43 122.756C119.59 123.148 119.67 123.636 119.67 124.22V128H118.422V124.292C118.422 123.932 118.374 123.64 118.278 123.416C118.19 123.184 118.054 123.012 117.87 122.9C117.686 122.788 117.45 122.732 117.162 122.732C116.938 122.732 116.726 122.772 116.526 122.852C116.334 122.924 116.166 123.028 116.022 123.164C115.878 123.3 115.766 123.46 115.686 123.644C115.606 123.82 115.566 124.016 115.566 124.232V128H114.318V124.268C114.318 123.94 114.27 123.664 114.174 123.44C114.078 123.208 113.938 123.032 113.754 122.912C113.57 122.792 113.346 122.732 113.082 122.732C112.858 122.732 112.65 122.772 112.458 122.852C112.266 122.924 112.098 123.028 111.954 123.164C111.81 123.292 111.698 123.448 111.618 123.632C111.538 123.808 111.498 124 111.498 124.208V128H110.25ZM124.712 128V119.12H125.948V128H124.712ZM130.415 128.12C129.799 128.12 129.247 127.98 128.759 127.7C128.279 127.412 127.899 127.024 127.619 126.536C127.339 126.04 127.199 125.476 127.199 124.844C127.199 124.212 127.339 123.652 127.619 123.164C127.899 122.668 128.279 122.28 128.759 122C129.247 121.712 129.799 121.568 130.415 121.568C131.023 121.568 131.567 121.712 132.047 122C132.535 122.28 132.919 122.668 133.199 123.164C133.479 123.652 133.619 124.212 133.619 124.844C133.619 125.476 133.479 126.04 133.199 126.536C132.919 127.024 132.535 127.412 132.047 127.7C131.567 127.98 131.023 128.12 130.415 128.12ZM130.415 126.992C130.791 126.992 131.127 126.9 131.423 126.716C131.719 126.524 131.951 126.268 132.119 125.948C132.287 125.62 132.367 125.252 132.359 124.844C132.367 124.428 132.287 124.06 132.119 123.74C131.951 123.412 131.719 123.156 131.423 122.972C131.127 122.788 130.791 122.696 130.415 122.696C130.039 122.696 129.699 122.792 129.395 122.984C129.099 123.168 128.867 123.424 128.699 123.752C128.531 124.072 128.451 124.436 128.459 124.844C128.451 125.252 128.531 125.62 128.699 125.948C128.867 126.268 129.099 126.524 129.395 126.716C129.699 126.9 130.039 126.992 130.415 126.992ZM137.39 128.12C136.87 128.12 136.394 127.976 135.962 127.688C135.538 127.4 135.198 127.008 134.942 126.512C134.686 126.016 134.558 125.456 134.558 124.832C134.558 124.2 134.686 123.64 134.942 123.152C135.206 122.656 135.558 122.268 135.998 121.988C136.446 121.708 136.946 121.568 137.498 121.568C137.826 121.568 138.126 121.616 138.398 121.712C138.67 121.808 138.906 121.944 139.106 122.12C139.314 122.288 139.482 122.484 139.61 122.708C139.746 122.932 139.83 123.172 139.862 123.428L139.586 123.332V121.7H140.834V128H139.586V126.5L139.874 126.416C139.826 126.632 139.726 126.844 139.574 127.052C139.43 127.252 139.242 127.432 139.01 127.592C138.786 127.752 138.534 127.88 138.254 127.976C137.982 128.072 137.694 128.12 137.39 128.12ZM137.714 126.98C138.09 126.98 138.422 126.888 138.71 126.704C138.998 126.52 139.222 126.268 139.382 125.948C139.55 125.62 139.634 125.248 139.634 124.832C139.634 124.424 139.55 124.06 139.382 123.74C139.222 123.42 138.998 123.168 138.71 122.984C138.422 122.8 138.09 122.708 137.714 122.708C137.346 122.708 137.018 122.8 136.73 122.984C136.45 123.168 136.226 123.42 136.058 123.74C135.898 124.06 135.818 124.424 135.818 124.832C135.818 125.248 135.898 125.62 136.058 125.948C136.226 126.268 136.45 126.52 136.73 126.704C137.018 126.888 137.346 126.98 137.714 126.98ZM142.559 128V121.7H143.795V122.996L143.579 123.14C143.659 122.86 143.815 122.604 144.047 122.372C144.279 122.132 144.555 121.94 144.875 121.796C145.195 121.644 145.523 121.568 145.859 121.568C146.339 121.568 146.739 121.664 147.059 121.856C147.379 122.04 147.619 122.324 147.779 122.708C147.939 123.092 148.019 123.576 148.019 124.16V128H146.783V124.244C146.783 123.884 146.735 123.588 146.639 123.356C146.543 123.116 146.395 122.944 146.195 122.84C145.995 122.728 145.747 122.68 145.451 122.696C145.211 122.696 144.991 122.736 144.791 122.816C144.591 122.888 144.415 122.992 144.263 123.128C144.119 123.264 144.003 123.424 143.915 123.608C143.835 123.784 143.795 123.976 143.795 124.184V128H143.183C143.079 128 142.975 128 142.871 128C142.767 128 142.663 128 142.559 128ZM151.796 128.12C151.268 128.12 150.792 128.028 150.368 127.844C149.944 127.66 149.592 127.388 149.312 127.028L150.152 126.308C150.392 126.588 150.652 126.792 150.932 126.92C151.22 127.04 151.544 127.1 151.904 127.1C152.048 127.1 152.18 127.084 152.3 127.052C152.428 127.012 152.536 126.956 152.624 126.884C152.72 126.812 152.792 126.728 152.84 126.632C152.888 126.528 152.912 126.416 152.912 126.296C152.912 126.088 152.836 125.92 152.684 125.792C152.604 125.736 152.476 125.676 152.3 125.612C152.132 125.54 151.912 125.468 151.64 125.396C151.176 125.276 150.796 125.14 150.5 124.988C150.204 124.836 149.976 124.664 149.816 124.472C149.696 124.32 149.608 124.156 149.552 123.98C149.496 123.796 149.468 123.596 149.468 123.38C149.468 123.116 149.524 122.876 149.636 122.66C149.756 122.436 149.916 122.244 150.116 122.084C150.324 121.916 150.564 121.788 150.836 121.7C151.116 121.612 151.412 121.568 151.724 121.568C152.02 121.568 152.312 121.608 152.6 121.688C152.896 121.768 153.168 121.884 153.416 122.036C153.664 122.188 153.872 122.368 154.04 122.576L153.332 123.356C153.18 123.204 153.012 123.072 152.828 122.96C152.652 122.84 152.472 122.748 152.288 122.684C152.104 122.62 151.936 122.588 151.784 122.588C151.616 122.588 151.464 122.604 151.328 122.636C151.192 122.668 151.076 122.716 150.98 122.78C150.892 122.844 150.824 122.924 150.776 123.02C150.728 123.116 150.704 123.224 150.704 123.344C150.712 123.448 150.736 123.548 150.776 123.644C150.824 123.732 150.888 123.808 150.968 123.872C151.056 123.936 151.188 124.004 151.364 124.076C151.54 124.148 151.764 124.216 152.036 124.28C152.436 124.384 152.764 124.5 153.02 124.628C153.284 124.748 153.492 124.888 153.644 125.048C153.804 125.2 153.916 125.376 153.98 125.576C154.044 125.776 154.076 126 154.076 126.248C154.076 126.608 153.972 126.932 153.764 127.22C153.564 127.5 153.292 127.72 152.948 127.88C152.604 128.04 152.22 128.12 151.796 128.12ZM161.226 128.12C160.706 128.12 160.23 127.976 159.798 127.688C159.374 127.4 159.034 127.008 158.778 126.512C158.522 126.016 158.394 125.456 158.394 124.832C158.394 124.2 158.522 123.64 158.778 123.152C159.042 122.656 159.394 122.268 159.834 121.988C160.282 121.708 160.782 121.568 161.334 121.568C161.662 121.568 161.962 121.616 162.234 121.712C162.506 121.808 162.742 121.944 162.942 122.12C163.15 122.288 163.318 122.484 163.446 122.708C163.582 122.932 163.666 123.172 163.698 123.428L163.422 123.332V121.7H164.67V128H163.422V126.5L163.71 126.416C163.662 126.632 163.562 126.844 163.41 127.052C163.266 127.252 163.078 127.432 162.846 127.592C162.622 127.752 162.37 127.88 162.09 127.976C161.818 128.072 161.53 128.12 161.226 128.12ZM161.55 126.98C161.926 126.98 162.258 126.888 162.546 126.704C162.834 126.52 163.058 126.268 163.218 125.948C163.386 125.62 163.47 125.248 163.47 124.832C163.47 124.424 163.386 124.06 163.218 123.74C163.058 123.42 162.834 123.168 162.546 122.984C162.258 122.8 161.926 122.708 161.55 122.708C161.182 122.708 160.854 122.8 160.566 122.984C160.286 123.168 160.062 123.42 159.894 123.74C159.734 124.06 159.654 124.424 159.654 124.832C159.654 125.248 159.734 125.62 159.894 125.948C160.062 126.268 160.286 126.52 160.566 126.704C160.854 126.888 161.182 126.98 161.55 126.98ZM167.175 128V120.092H168.411V128H167.175ZM165.867 122.9V121.7H169.875V122.9H165.867ZM174.364 128V121.7H175.612V123.68L175.492 123.2C175.58 122.896 175.728 122.62 175.936 122.372C176.152 122.124 176.396 121.928 176.668 121.784C176.948 121.64 177.236 121.568 177.532 121.568C177.668 121.568 177.796 121.58 177.916 121.604C178.044 121.628 178.144 121.656 178.216 121.688L177.892 123.032C177.796 122.992 177.688 122.96 177.568 122.936C177.456 122.904 177.344 122.888 177.232 122.888C177.016 122.888 176.808 122.932 176.608 123.02C176.416 123.1 176.244 123.216 176.092 123.368C175.948 123.512 175.832 123.684 175.744 123.884C175.656 124.076 175.612 124.288 175.612 124.52V128H174.364ZM181.874 128.12C181.226 128.12 180.65 127.984 180.146 127.712C179.65 127.432 179.258 127.052 178.97 126.572C178.69 126.092 178.55 125.54 178.55 124.916C178.55 124.42 178.63 123.968 178.79 123.56C178.95 123.152 179.17 122.8 179.45 122.504C179.738 122.2 180.078 121.968 180.47 121.808C180.87 121.64 181.302 121.556 181.766 121.556C182.174 121.556 182.554 121.636 182.906 121.796C183.258 121.948 183.562 122.16 183.818 122.432C184.082 122.704 184.282 123.028 184.418 123.404C184.562 123.772 184.63 124.176 184.622 124.616L184.61 125.144H179.462L179.186 124.16H183.542L183.362 124.364V124.076C183.338 123.812 183.25 123.576 183.098 123.368C182.946 123.16 182.754 122.996 182.522 122.876C182.29 122.756 182.038 122.696 181.766 122.696C181.334 122.696 180.97 122.78 180.674 122.948C180.378 123.108 180.154 123.348 180.002 123.668C179.85 123.98 179.774 124.368 179.774 124.832C179.774 125.272 179.866 125.656 180.05 125.984C180.234 126.304 180.494 126.552 180.83 126.728C181.166 126.904 181.554 126.992 181.994 126.992C182.306 126.992 182.594 126.94 182.858 126.836C183.13 126.732 183.422 126.544 183.734 126.272L184.358 127.148C184.166 127.34 183.93 127.508 183.65 127.652C183.378 127.796 183.086 127.912 182.774 128C182.47 128.08 182.17 128.12 181.874 128.12ZM188.594 128.12C188.018 128.12 187.502 127.98 187.046 127.7C186.598 127.412 186.242 127.024 185.978 126.536C185.714 126.04 185.582 125.476 185.582 124.844C185.582 124.212 185.71 123.652 185.966 123.164C186.23 122.668 186.586 122.28 187.034 122C187.482 121.712 187.99 121.568 188.558 121.568C188.87 121.568 189.17 121.62 189.458 121.724C189.754 121.82 190.018 121.956 190.25 122.132C190.482 122.3 190.662 122.488 190.79 122.696C190.926 122.896 190.994 123.1 190.994 123.308L190.634 123.332V119.12H191.87V128H190.634V126.5H190.874C190.874 126.692 190.81 126.884 190.682 127.076C190.554 127.26 190.382 127.432 190.166 127.592C189.958 127.752 189.714 127.88 189.434 127.976C189.162 128.072 188.882 128.12 188.594 128.12ZM188.762 127.052C189.138 127.052 189.47 126.956 189.758 126.764C190.046 126.572 190.27 126.312 190.43 125.984C190.598 125.648 190.682 125.268 190.682 124.844C190.682 124.42 190.598 124.044 190.43 123.716C190.27 123.38 190.046 123.116 189.758 122.924C189.47 122.732 189.138 122.636 188.762 122.636C188.386 122.636 188.054 122.732 187.766 122.924C187.478 123.116 187.25 123.38 187.082 123.716C186.922 124.044 186.842 124.42 186.842 124.844C186.842 125.268 186.922 125.648 187.082 125.984C187.25 126.312 187.478 126.572 187.766 126.764C188.054 126.956 188.386 127.052 188.762 127.052ZM195.967 128.12C195.519 128.12 195.127 128.016 194.791 127.808C194.463 127.6 194.207 127.308 194.023 126.932C193.847 126.556 193.759 126.108 193.759 125.588V121.7H194.995V125.252C194.995 125.62 195.051 125.94 195.163 126.212C195.283 126.476 195.451 126.68 195.667 126.824C195.891 126.968 196.159 127.04 196.471 127.04C196.703 127.04 196.915 127.004 197.107 126.932C197.299 126.852 197.463 126.744 197.599 126.608C197.743 126.472 197.855 126.308 197.935 126.116C198.015 125.924 198.055 125.716 198.055 125.492V121.7H199.291V128H198.055V126.68L198.271 126.536C198.175 126.832 198.011 127.1 197.779 127.34C197.555 127.58 197.287 127.772 196.975 127.916C196.663 128.052 196.327 128.12 195.967 128.12ZM203.7 128.12C203.116 128.12 202.592 127.976 202.128 127.688C201.672 127.4 201.308 127.008 201.036 126.512C200.772 126.016 200.64 125.46 200.64 124.844C200.64 124.228 200.772 123.672 201.036 123.176C201.308 122.68 201.672 122.288 202.128 122C202.592 121.712 203.116 121.568 203.7 121.568C204.26 121.568 204.768 121.684 205.224 121.916C205.688 122.14 206.04 122.448 206.28 122.84L205.596 123.68C205.468 123.496 205.304 123.328 205.104 123.176C204.904 123.024 204.692 122.904 204.468 122.816C204.244 122.728 204.028 122.684 203.82 122.684C203.436 122.684 203.092 122.78 202.788 122.972C202.492 123.156 202.256 123.412 202.08 123.74C201.904 124.068 201.816 124.436 201.816 124.844C201.816 125.252 201.908 125.62 202.092 125.948C202.276 126.268 202.52 126.524 202.824 126.716C203.128 126.908 203.464 127.004 203.832 127.004C204.048 127.004 204.256 126.968 204.456 126.896C204.664 126.824 204.864 126.716 205.056 126.572C205.248 126.428 205.428 126.252 205.596 126.044L206.28 126.884C206.024 127.244 205.656 127.54 205.176 127.772C204.704 128.004 204.212 128.12 203.7 128.12ZM210.386 128.12C209.738 128.12 209.162 127.984 208.658 127.712C208.162 127.432 207.77 127.052 207.482 126.572C207.202 126.092 207.062 125.54 207.062 124.916C207.062 124.42 207.142 123.968 207.302 123.56C207.462 123.152 207.682 122.8 207.962 122.504C208.25 122.2 208.59 121.968 208.982 121.808C209.382 121.64 209.814 121.556 210.278 121.556C210.686 121.556 211.066 121.636 211.418 121.796C211.77 121.948 212.074 122.16 212.33 122.432C212.594 122.704 212.794 123.028 212.93 123.404C213.074 123.772 213.142 124.176 213.134 124.616L213.122 125.144H207.974L207.698 124.16H212.054L211.874 124.364V124.076C211.85 123.812 211.762 123.576 211.61 123.368C211.458 123.16 211.266 122.996 211.034 122.876C210.802 122.756 210.55 122.696 210.278 122.696C209.846 122.696 209.482 122.78 209.186 122.948C208.89 123.108 208.666 123.348 208.514 123.668C208.362 123.98 208.286 124.368 208.286 124.832C208.286 125.272 208.378 125.656 208.562 125.984C208.746 126.304 209.006 126.552 209.342 126.728C209.678 126.904 210.066 126.992 210.506 126.992C210.818 126.992 211.106 126.94 211.37 126.836C211.642 126.732 211.934 126.544 212.246 126.272L212.87 127.148C212.678 127.34 212.442 127.508 212.162 127.652C211.89 127.796 211.598 127.912 211.286 128C210.982 128.08 210.682 128.12 210.386 128.12ZM217.105 128.12C216.529 128.12 216.013 127.98 215.557 127.7C215.109 127.412 214.753 127.024 214.489 126.536C214.225 126.04 214.093 125.476 214.093 124.844C214.093 124.212 214.221 123.652 214.477 123.164C214.741 122.668 215.097 122.28 215.545 122C215.993 121.712 216.501 121.568 217.069 121.568C217.381 121.568 217.681 121.62 217.969 121.724C218.265 121.82 218.529 121.956 218.761 122.132C218.993 122.3 219.173 122.488 219.301 122.696C219.437 122.896 219.505 123.1 219.505 123.308L219.145 123.332V119.12H220.381V128H219.145V126.5H219.385C219.385 126.692 219.321 126.884 219.193 127.076C219.065 127.26 218.893 127.432 218.677 127.592C218.469 127.752 218.225 127.88 217.945 127.976C217.673 128.072 217.393 128.12 217.105 128.12ZM217.273 127.052C217.649 127.052 217.981 126.956 218.269 126.764C218.557 126.572 218.781 126.312 218.941 125.984C219.109 125.648 219.193 125.268 219.193 124.844C219.193 124.42 219.109 124.044 218.941 123.716C218.781 123.38 218.557 123.116 218.269 122.924C217.981 122.732 217.649 122.636 217.273 122.636C216.897 122.636 216.565 122.732 216.277 122.924C215.989 123.116 215.761 123.38 215.593 123.716C215.433 124.044 215.353 124.42 215.353 124.844C215.353 125.268 215.433 125.648 215.593 125.984C215.761 126.312 215.989 126.572 216.277 126.764C216.565 126.956 216.897 127.052 217.273 127.052ZM41.068 143V136.7H42.304V143H41.068ZM41.668 135.308C41.404 135.308 41.2 135.24 41.056 135.104C40.912 134.968 40.84 134.776 40.84 134.528C40.84 134.296 40.912 134.108 41.056 133.964C41.208 133.82 41.412 133.748 41.668 133.748C41.932 133.748 42.136 133.816 42.28 133.952C42.424 134.088 42.496 134.28 42.496 134.528C42.496 134.76 42.42 134.948 42.268 135.092C42.124 135.236 41.924 135.308 41.668 135.308ZM44.2038 143V136.7H45.4398V137.996L45.2238 138.14C45.3038 137.86 45.4598 137.604 45.6918 137.372C45.9238 137.132 46.1998 136.94 46.5198 136.796C46.8398 136.644 47.1678 136.568 47.5038 136.568C47.9838 136.568 48.3838 136.664 48.7038 136.856C49.0238 137.04 49.2638 137.324 49.4238 137.708C49.5838 138.092 49.6638 138.576 49.6638 139.16V143H48.4278V139.244C48.4278 138.884 48.3798 138.588 48.2838 138.356C48.1878 138.116 48.0398 137.944 47.8398 137.84C47.6398 137.728 47.3918 137.68 47.0958 137.696C46.8558 137.696 46.6358 137.736 46.4358 137.816C46.2358 137.888 46.0598 137.992 45.9078 138.128C45.7638 138.264 45.6478 138.424 45.5598 138.608C45.4798 138.784 45.4398 138.976 45.4398 139.184V143H44.8278C44.7238 143 44.6198 143 44.5158 143C44.4118 143 44.3078 143 44.2038 143ZM52.1206 143V135.092H53.3566V143H52.1206ZM50.8126 137.9V136.7H54.8206V137.9H50.8126ZM58.8274 143.12C58.1794 143.12 57.6034 142.984 57.0994 142.712C56.6034 142.432 56.2114 142.052 55.9234 141.572C55.6434 141.092 55.5034 140.54 55.5034 139.916C55.5034 139.42 55.5834 138.968 55.7434 138.56C55.9034 138.152 56.1234 137.8 56.4034 137.504C56.6914 137.2 57.0314 136.968 57.4234 136.808C57.8234 136.64 58.2554 136.556 58.7194 136.556C59.1274 136.556 59.5074 136.636 59.8594 136.796C60.2114 136.948 60.5154 137.16 60.7714 137.432C61.0354 137.704 61.2354 138.028 61.3714 138.404C61.5154 138.772 61.5834 139.176 61.5754 139.616L61.5634 140.144H56.4154L56.1394 139.16H60.4954L60.3154 139.364V139.076C60.2914 138.812 60.2034 138.576 60.0514 138.368C59.8994 138.16 59.7074 137.996 59.4754 137.876C59.2434 137.756 58.9914 137.696 58.7194 137.696C58.2874 137.696 57.9234 137.78 57.6274 137.948C57.3314 138.108 57.1074 138.348 56.9554 138.668C56.8034 138.98 56.7274 139.368 56.7274 139.832C56.7274 140.272 56.8194 140.656 57.0034 140.984C57.1874 141.304 57.4474 141.552 57.7834 141.728C58.1194 141.904 58.5074 141.992 58.9474 141.992C59.2594 141.992 59.5474 141.94 59.8114 141.836C60.0834 141.732 60.3754 141.544 60.6874 141.272L61.3114 142.148C61.1194 142.34 60.8834 142.508 60.6034 142.652C60.3314 142.796 60.0394 142.912 59.7274 143C59.4234 143.08 59.1234 143.12 58.8274 143.12ZM62.9187 143V136.7H64.1667V138.68L64.0467 138.2C64.1347 137.896 64.2827 137.62 64.4907 137.372C64.7067 137.124 64.9507 136.928 65.2227 136.784C65.5027 136.64 65.7907 136.568 66.0867 136.568C66.2227 136.568 66.3507 136.58 66.4707 136.604C66.5987 136.628 66.6987 136.656 66.7707 136.688L66.4467 138.032C66.3507 137.992 66.2427 137.96 66.1227 137.936C66.0107 137.904 65.8987 137.888 65.7867 137.888C65.5707 137.888 65.3627 137.932 65.1627 138.02C64.9707 138.1 64.7987 138.216 64.6467 138.368C64.5027 138.512 64.3867 138.684 64.2987 138.884C64.2107 139.076 64.1667 139.288 64.1667 139.52V143H62.9187ZM70.429 143.12C69.781 143.12 69.205 142.984 68.701 142.712C68.205 142.432 67.813 142.052 67.525 141.572C67.245 141.092 67.105 140.54 67.105 139.916C67.105 139.42 67.185 138.968 67.345 138.56C67.505 138.152 67.725 137.8 68.005 137.504C68.293 137.2 68.633 136.968 69.025 136.808C69.425 136.64 69.857 136.556 70.321 136.556C70.729 136.556 71.109 136.636 71.461 136.796C71.813 136.948 72.117 137.16 72.373 137.432C72.637 137.704 72.837 138.028 72.973 138.404C73.117 138.772 73.185 139.176 73.177 139.616L73.165 140.144H68.017L67.741 139.16H72.097L71.917 139.364V139.076C71.893 138.812 71.805 138.576 71.653 138.368C71.501 138.16 71.309 137.996 71.077 137.876C70.845 137.756 70.593 137.696 70.321 137.696C69.889 137.696 69.525 137.78 69.229 137.948C68.933 138.108 68.709 138.348 68.557 138.668C68.405 138.98 68.329 139.368 68.329 139.832C68.329 140.272 68.421 140.656 68.605 140.984C68.789 141.304 69.049 141.552 69.385 141.728C69.721 141.904 70.109 141.992 70.549 141.992C70.861 141.992 71.149 141.94 71.413 141.836C71.685 141.732 71.977 141.544 72.289 141.272L72.913 142.148C72.721 142.34 72.485 142.508 72.205 142.652C71.933 142.796 71.641 142.912 71.329 143C71.025 143.08 70.725 143.12 70.429 143.12ZM76.6203 143.12C76.0923 143.12 75.6163 143.028 75.1923 142.844C74.7683 142.66 74.4163 142.388 74.1363 142.028L74.9763 141.308C75.2163 141.588 75.4763 141.792 75.7563 141.92C76.0443 142.04 76.3683 142.1 76.7283 142.1C76.8723 142.1 77.0043 142.084 77.1243 142.052C77.2523 142.012 77.3603 141.956 77.4483 141.884C77.5443 141.812 77.6163 141.728 77.6643 141.632C77.7123 141.528 77.7363 141.416 77.7363 141.296C77.7363 141.088 77.6603 140.92 77.5083 140.792C77.4283 140.736 77.3003 140.676 77.1243 140.612C76.9563 140.54 76.7363 140.468 76.4643 140.396C76.0003 140.276 75.6203 140.14 75.3243 139.988C75.0283 139.836 74.8003 139.664 74.6403 139.472C74.5203 139.32 74.4323 139.156 74.3763 138.98C74.3203 138.796 74.2923 138.596 74.2923 138.38C74.2923 138.116 74.3483 137.876 74.4603 137.66C74.5803 137.436 74.7403 137.244 74.9403 137.084C75.1483 136.916 75.3883 136.788 75.6603 136.7C75.9403 136.612 76.2363 136.568 76.5483 136.568C76.8443 136.568 77.1363 136.608 77.4243 136.688C77.7203 136.768 77.9923 136.884 78.2403 137.036C78.4883 137.188 78.6963 137.368 78.8643 137.576L78.1563 138.356C78.0043 138.204 77.8363 138.072 77.6523 137.96C77.4763 137.84 77.2963 137.748 77.1123 137.684C76.9283 137.62 76.7603 137.588 76.6083 137.588C76.4403 137.588 76.2883 137.604 76.1523 137.636C76.0163 137.668 75.9003 137.716 75.8043 137.78C75.7163 137.844 75.6483 137.924 75.6003 138.02C75.5523 138.116 75.5283 138.224 75.5283 138.344C75.5363 138.448 75.5603 138.548 75.6003 138.644C75.6483 138.732 75.7123 138.808 75.7923 138.872C75.8803 138.936 76.0123 139.004 76.1883 139.076C76.3643 139.148 76.5883 139.216 76.8603 139.28C77.2603 139.384 77.5883 139.5 77.8443 139.628C78.1083 139.748 78.3163 139.888 78.4683 140.048C78.6283 140.2 78.7403 140.376 78.8043 140.576C78.8683 140.776 78.9003 141 78.9003 141.248C78.9003 141.608 78.7963 141.932 78.5883 142.22C78.3883 142.5 78.1163 142.72 77.7723 142.88C77.4283 143.04 77.0443 143.12 76.6203 143.12ZM81.0424 143V135.092H82.2784V143H81.0424ZM79.7344 137.9V136.7H83.7424V137.9H79.7344ZM88.2312 143V136.7H89.4792V138.68L89.3592 138.2C89.4472 137.896 89.5952 137.62 89.8032 137.372C90.0192 137.124 90.2632 136.928 90.5352 136.784C90.8152 136.64 91.1032 136.568 91.3992 136.568C91.5352 136.568 91.6632 136.58 91.7832 136.604C91.9112 136.628 92.0112 136.656 92.0832 136.688L91.7592 138.032C91.6632 137.992 91.5552 137.96 91.4352 137.936C91.3232 137.904 91.2112 137.888 91.0992 137.888C90.8832 137.888 90.6752 137.932 90.4752 138.02C90.2832 138.1 90.1112 138.216 89.9592 138.368C89.8152 138.512 89.6992 138.684 89.6112 138.884C89.5232 139.076 89.4792 139.288 89.4792 139.52V143H88.2312ZM95.2255 143.12C94.7055 143.12 94.2295 142.976 93.7975 142.688C93.3735 142.4 93.0335 142.008 92.7775 141.512C92.5215 141.016 92.3935 140.456 92.3935 139.832C92.3935 139.2 92.5215 138.64 92.7775 138.152C93.0415 137.656 93.3935 137.268 93.8335 136.988C94.2815 136.708 94.7815 136.568 95.3335 136.568C95.6615 136.568 95.9615 136.616 96.2335 136.712C96.5055 136.808 96.7415 136.944 96.9415 137.12C97.1495 137.288 97.3175 137.484 97.4455 137.708C97.5815 137.932 97.6655 138.172 97.6975 138.428L97.4215 138.332V136.7H98.6695V143H97.4215V141.5L97.7095 141.416C97.6615 141.632 97.5615 141.844 97.4095 142.052C97.2655 142.252 97.0775 142.432 96.8455 142.592C96.6215 142.752 96.3695 142.88 96.0895 142.976C95.8175 143.072 95.5295 143.12 95.2255 143.12ZM95.5495 141.98C95.9255 141.98 96.2575 141.888 96.5455 141.704C96.8335 141.52 97.0575 141.268 97.2175 140.948C97.3855 140.62 97.4695 140.248 97.4695 139.832C97.4695 139.424 97.3855 139.06 97.2175 138.74C97.0575 138.42 96.8335 138.168 96.5455 137.984C96.2575 137.8 95.9255 137.708 95.5495 137.708C95.1815 137.708 94.8535 137.8 94.5655 137.984C94.2855 138.168 94.0615 138.42 93.8935 138.74C93.7335 139.06 93.6535 139.424 93.6535 139.832C93.6535 140.248 93.7335 140.62 93.8935 140.948C94.0615 141.268 94.2855 141.52 94.5655 141.704C94.8535 141.888 95.1815 141.98 95.5495 141.98ZM101.175 143V135.092H102.411V143H101.175ZM99.8673 137.9V136.7H103.875V137.9H99.8673ZM107.882 143.12C107.234 143.12 106.658 142.984 106.154 142.712C105.658 142.432 105.266 142.052 104.978 141.572C104.698 141.092 104.558 140.54 104.558 139.916C104.558 139.42 104.638 138.968 104.798 138.56C104.958 138.152 105.178 137.8 105.458 137.504C105.746 137.2 106.086 136.968 106.478 136.808C106.878 136.64 107.31 136.556 107.774 136.556C108.182 136.556 108.562 136.636 108.914 136.796C109.266 136.948 109.57 137.16 109.826 137.432C110.09 137.704 110.29 138.028 110.426 138.404C110.57 138.772 110.638 139.176 110.63 139.616L110.618 140.144H105.47L105.194 139.16H109.55L109.37 139.364V139.076C109.346 138.812 109.258 138.576 109.106 138.368C108.954 138.16 108.762 137.996 108.53 137.876C108.298 137.756 108.046 137.696 107.774 137.696C107.342 137.696 106.978 137.78 106.682 137.948C106.386 138.108 106.162 138.348 106.01 138.668C105.858 138.98 105.782 139.368 105.782 139.832C105.782 140.272 105.874 140.656 106.058 140.984C106.242 141.304 106.502 141.552 106.838 141.728C107.174 141.904 107.562 141.992 108.002 141.992C108.314 141.992 108.602 141.94 108.866 141.836C109.138 141.732 109.43 141.544 109.742 141.272L110.366 142.148C110.174 142.34 109.938 142.508 109.658 142.652C109.386 142.796 109.094 142.912 108.782 143C108.478 143.08 108.178 143.12 107.882 143.12ZM114.073 143.12C113.545 143.12 113.069 143.028 112.645 142.844C112.221 142.66 111.869 142.388 111.589 142.028L112.429 141.308C112.669 141.588 112.929 141.792 113.209 141.92C113.497 142.04 113.821 142.1 114.181 142.1C114.325 142.1 114.457 142.084 114.577 142.052C114.705 142.012 114.813 141.956 114.901 141.884C114.997 141.812 115.069 141.728 115.117 141.632C115.165 141.528 115.189 141.416 115.189 141.296C115.189 141.088 115.113 140.92 114.961 140.792C114.881 140.736 114.753 140.676 114.577 140.612C114.409 140.54 114.189 140.468 113.917 140.396C113.453 140.276 113.073 140.14 112.777 139.988C112.481 139.836 112.253 139.664 112.093 139.472C111.973 139.32 111.885 139.156 111.829 138.98C111.773 138.796 111.745 138.596 111.745 138.38C111.745 138.116 111.801 137.876 111.913 137.66C112.033 137.436 112.193 137.244 112.393 137.084C112.601 136.916 112.841 136.788 113.113 136.7C113.393 136.612 113.689 136.568 114.001 136.568C114.297 136.568 114.589 136.608 114.877 136.688C115.173 136.768 115.445 136.884 115.693 137.036C115.941 137.188 116.149 137.368 116.317 137.576L115.609 138.356C115.457 138.204 115.289 138.072 115.105 137.96C114.929 137.84 114.749 137.748 114.565 137.684C114.381 137.62 114.213 137.588 114.061 137.588C113.893 137.588 113.741 137.604 113.605 137.636C113.469 137.668 113.353 137.716 113.257 137.78C113.169 137.844 113.101 137.924 113.053 138.02C113.005 138.116 112.981 138.224 112.981 138.344C112.989 138.448 113.013 138.548 113.053 138.644C113.101 138.732 113.165 138.808 113.245 138.872C113.333 138.936 113.465 139.004 113.641 139.076C113.817 139.148 114.041 139.216 114.313 139.28C114.713 139.384 115.041 139.5 115.297 139.628C115.561 139.748 115.769 139.888 115.921 140.048C116.081 140.2 116.193 140.376 116.257 140.576C116.321 140.776 116.353 141 116.353 141.248C116.353 141.608 116.249 141.932 116.041 142.22C115.841 142.5 115.569 142.72 115.225 142.88C114.881 143.04 114.497 143.12 114.073 143.12Z" fill="black" fill-opacity="0.6"/>
<path d="M42.093 214V197.9H45.175L54.076 209.929H53.432C53.3707 209.454 53.317 208.994 53.271 208.549C53.225 208.089 53.179 207.629 53.133 207.169C53.1023 206.694 53.0717 206.211 53.041 205.72C53.0257 205.214 53.0103 204.685 52.995 204.133C52.9797 203.566 52.972 202.952 52.972 202.293V197.9H56.353V214H53.225L44.14 201.856L45.014 201.879C45.0907 202.676 45.152 203.359 45.198 203.926C45.2593 204.478 45.3053 204.961 45.336 205.375C45.3667 205.789 45.3897 206.149 45.405 206.456C45.4357 206.763 45.451 207.054 45.451 207.33C45.4663 207.606 45.474 207.897 45.474 208.204V214H42.093ZM65.7314 214.23C64.4894 214.23 63.3778 213.962 62.3964 213.425C61.4304 212.873 60.6638 212.122 60.0964 211.171C59.5444 210.22 59.2684 209.132 59.2684 207.905C59.2684 206.678 59.5444 205.597 60.0964 204.662C60.6638 203.711 61.4304 202.96 62.3964 202.408C63.3778 201.856 64.4894 201.58 65.7314 201.58C66.9581 201.58 68.0544 201.856 69.0204 202.408C70.0018 202.96 70.7684 203.711 71.3204 204.662C71.8724 205.597 72.1484 206.678 72.1484 207.905C72.1484 209.132 71.8724 210.22 71.3204 211.171C70.7684 212.122 70.0018 212.873 69.0204 213.425C68.0544 213.962 66.9581 214.23 65.7314 214.23ZM65.7314 211.378C66.3294 211.378 66.8661 211.232 67.3414 210.941C67.8168 210.634 68.1848 210.22 68.4454 209.699C68.7214 209.162 68.8594 208.564 68.8594 207.905C68.8594 207.23 68.7214 206.632 68.4454 206.111C68.1848 205.574 67.8168 205.16 67.3414 204.869C66.8661 204.562 66.3294 204.409 65.7314 204.409C65.1181 204.409 64.5738 204.562 64.0984 204.869C63.6231 205.176 63.2474 205.59 62.9714 206.111C62.6954 206.632 62.5651 207.23 62.5804 207.905C62.5651 208.564 62.6954 209.162 62.9714 209.699C63.2474 210.22 63.6231 210.634 64.0984 210.941C64.5738 211.232 65.1181 211.378 65.7314 211.378ZM76.9394 214L72.8684 201.833H76.2724L78.7564 210.113L78.2504 210.044L80.9874 203.581H82.9194L85.7714 210.067L85.2194 210.113L87.7034 201.833H91.1074L86.9674 214H84.5984L81.7234 207.077L82.0914 207.123L79.2854 214H76.9394ZM101.317 214V198.751H104.583V214H101.317ZM99.0397 204.754V201.833H107.067V204.754H99.0397ZM109.472 214V201.833H112.738V214H109.472ZM111.082 199.326C110.453 199.326 109.962 199.173 109.61 198.866C109.257 198.559 109.08 198.122 109.08 197.555C109.08 197.034 109.257 196.612 109.61 196.29C109.978 195.953 110.468 195.784 111.082 195.784C111.71 195.784 112.201 195.945 112.554 196.267C112.906 196.574 113.083 197.003 113.083 197.555C113.083 198.092 112.899 198.521 112.531 198.843C112.178 199.165 111.695 199.326 111.082 199.326ZM116.249 214V196.98H119.515V214H116.249ZM122.852 214V196.98H126.118V214H122.852ZM136.463 214L135.704 212.114L140.465 206.847C140.725 206.571 141.001 206.249 141.293 205.881C141.599 205.513 141.891 205.137 142.167 204.754C142.458 204.355 142.688 203.972 142.857 203.604C143.025 203.221 143.11 202.876 143.11 202.569C143.11 202.216 143.033 201.91 142.88 201.649C142.726 201.373 142.504 201.158 142.213 201.005C141.921 200.852 141.561 200.775 141.132 200.775C140.733 200.775 140.357 200.882 140.005 201.097C139.652 201.296 139.322 201.595 139.016 201.994C138.709 202.393 138.441 202.876 138.211 203.443L135.635 201.994C135.941 201.105 136.378 200.33 136.946 199.671C137.513 199.012 138.188 198.498 138.97 198.13C139.752 197.762 140.587 197.578 141.477 197.578C142.412 197.593 143.255 197.793 144.007 198.176C144.758 198.559 145.348 199.096 145.778 199.786C146.207 200.476 146.422 201.273 146.422 202.178C146.422 202.515 146.383 202.86 146.307 203.213C146.245 203.566 146.13 203.934 145.962 204.317C145.808 204.7 145.601 205.107 145.341 205.536C145.095 205.95 144.789 206.395 144.421 206.87C144.068 207.33 143.662 207.813 143.202 208.319L139.545 212.298L139.085 210.895H147.089V214H136.463ZM153.755 214.161C152.59 214.161 151.532 213.923 150.581 213.448C149.646 212.957 148.864 212.252 148.235 211.332L150.098 209.262C150.757 209.998 151.355 210.504 151.892 210.78C152.429 211.041 153.019 211.171 153.663 211.171C154.2 211.171 154.683 211.056 155.112 210.826C155.541 210.596 155.879 210.282 156.124 209.883C156.369 209.484 156.492 209.04 156.492 208.549C156.492 208.043 156.369 207.591 156.124 207.192C155.879 206.793 155.549 206.479 155.135 206.249C154.736 206.004 154.276 205.881 153.755 205.881C153.418 205.881 153.103 205.912 152.812 205.973C152.521 206.019 152.199 206.119 151.846 206.272C151.493 206.41 151.064 206.617 150.558 206.893L148.994 204.823L149.983 197.808H159.045V200.775H151.731L152.582 199.763L151.823 204.869L150.719 204.34C150.949 204.125 151.263 203.926 151.662 203.742C152.076 203.558 152.521 203.405 152.996 203.282C153.487 203.159 153.962 203.098 154.422 203.098C155.434 203.098 156.331 203.328 157.113 203.788C157.91 204.248 158.539 204.892 158.999 205.72C159.474 206.533 159.712 207.468 159.712 208.526C159.712 209.584 159.451 210.542 158.93 211.401C158.409 212.244 157.696 212.919 156.791 213.425C155.886 213.916 154.874 214.161 153.755 214.161ZM170.098 214V197.9H173.18L182.081 209.929H181.437C181.376 209.454 181.322 208.994 181.276 208.549C181.23 208.089 181.184 207.629 181.138 207.169C181.107 206.694 181.077 206.211 181.046 205.72C181.031 205.214 181.015 204.685 181 204.133C180.985 203.566 180.977 202.952 180.977 202.293V197.9H184.358V214H181.23L172.145 201.856L173.019 201.879C173.096 202.676 173.157 203.359 173.203 203.926C173.264 204.478 173.31 204.961 173.341 205.375C173.372 205.789 173.395 206.149 173.41 206.456C173.441 206.763 173.456 207.054 173.456 207.33C173.471 207.606 173.479 207.897 173.479 208.204V214H170.098ZM193.736 214.23C192.494 214.23 191.383 213.962 190.401 213.425C189.435 212.873 188.669 212.122 188.101 211.171C187.549 210.22 187.273 209.132 187.273 207.905C187.273 206.678 187.549 205.597 188.101 204.662C188.669 203.711 189.435 202.96 190.401 202.408C191.383 201.856 192.494 201.58 193.736 201.58C194.963 201.58 196.059 201.856 197.025 202.408C198.007 202.96 198.773 203.711 199.325 204.662C199.877 205.597 200.153 206.678 200.153 207.905C200.153 209.132 199.877 210.22 199.325 211.171C198.773 212.122 198.007 212.873 197.025 213.425C196.059 213.962 194.963 214.23 193.736 214.23ZM193.736 211.378C194.334 211.378 194.871 211.232 195.346 210.941C195.822 210.634 196.19 210.22 196.45 209.699C196.726 209.162 196.864 208.564 196.864 207.905C196.864 207.23 196.726 206.632 196.45 206.111C196.19 205.574 195.822 205.16 195.346 204.869C194.871 204.562 194.334 204.409 193.736 204.409C193.123 204.409 192.579 204.562 192.103 204.869C191.628 205.176 191.252 205.59 190.976 206.111C190.7 206.632 190.57 207.23 190.585 207.905C190.57 208.564 190.7 209.162 190.976 209.699C191.252 210.22 191.628 210.634 192.103 210.941C192.579 211.232 193.123 211.378 193.736 211.378ZM206.092 214L200.986 201.833H204.574L207.817 210.918L207.058 211.056L210.462 201.833H213.958L208.599 214H206.092ZM222.982 214L222.223 212.114L226.984 206.847C227.245 206.571 227.521 206.249 227.812 205.881C228.119 205.513 228.41 205.137 228.686 204.754C228.977 204.355 229.207 203.972 229.376 203.604C229.545 203.221 229.629 202.876 229.629 202.569C229.629 202.216 229.552 201.91 229.399 201.649C229.246 201.373 229.023 201.158 228.732 201.005C228.441 200.852 228.08 200.775 227.651 200.775C227.252 200.775 226.877 200.882 226.524 201.097C226.171 201.296 225.842 201.595 225.535 201.994C225.228 202.393 224.96 202.876 224.73 203.443L222.154 201.994C222.461 201.105 222.898 200.33 223.465 199.671C224.032 199.012 224.707 198.498 225.489 198.13C226.271 197.762 227.107 197.578 227.996 197.578C228.931 197.593 229.775 197.793 230.526 198.176C231.277 198.559 231.868 199.096 232.297 199.786C232.726 200.476 232.941 201.273 232.941 202.178C232.941 202.515 232.903 202.86 232.826 203.213C232.765 203.566 232.65 203.934 232.481 204.317C232.328 204.7 232.121 205.107 231.86 205.536C231.615 205.95 231.308 206.395 230.94 206.87C230.587 207.33 230.181 207.813 229.721 208.319L226.064 212.298L225.604 210.895H233.608V214H222.982ZM241.471 214.23C240.091 214.23 238.91 213.9 237.929 213.241C236.963 212.582 236.219 211.639 235.698 210.412C235.192 209.17 234.939 207.683 234.939 205.95C234.939 204.217 235.192 202.738 235.698 201.511C236.219 200.269 236.963 199.318 237.929 198.659C238.91 198 240.091 197.67 241.471 197.67C242.851 197.67 244.031 198 245.013 198.659C245.994 199.318 246.738 200.269 247.244 201.511C247.765 202.738 248.026 204.217 248.026 205.95C248.026 207.683 247.765 209.17 247.244 210.412C246.738 211.639 245.994 212.582 245.013 213.241C244.031 213.9 242.851 214.23 241.471 214.23ZM241.471 211.263C242.498 211.263 243.295 210.803 243.863 209.883C244.43 208.963 244.714 207.652 244.714 205.95C244.714 204.217 244.43 202.883 243.863 201.948C243.295 201.013 242.498 200.545 241.471 200.545C240.428 200.545 239.623 201.013 239.056 201.948C238.504 202.883 238.228 204.217 238.228 205.95C238.228 207.652 238.504 208.963 239.056 209.883C239.623 210.803 240.428 211.263 241.471 211.263ZM250.609 214L249.85 212.114L254.611 206.847C254.872 206.571 255.148 206.249 255.439 205.881C255.746 205.513 256.037 205.137 256.313 204.754C256.604 204.355 256.834 203.972 257.003 203.604C257.172 203.221 257.256 202.876 257.256 202.569C257.256 202.216 257.179 201.91 257.026 201.649C256.873 201.373 256.65 201.158 256.359 201.005C256.068 200.852 255.707 200.775 255.278 200.775C254.879 200.775 254.504 200.882 254.151 201.097C253.798 201.296 253.469 201.595 253.162 201.994C252.855 202.393 252.587 202.876 252.357 203.443L249.781 201.994C250.088 201.105 250.525 200.33 251.092 199.671C251.659 199.012 252.334 198.498 253.116 198.13C253.898 197.762 254.734 197.578 255.623 197.578C256.558 197.593 257.402 197.793 258.153 198.176C258.904 198.559 259.495 199.096 259.924 199.786C260.353 200.476 260.568 201.273 260.568 202.178C260.568 202.515 260.53 202.86 260.453 203.213C260.392 203.566 260.277 203.934 260.108 204.317C259.955 204.7 259.748 205.107 259.487 205.536C259.242 205.95 258.935 206.395 258.567 206.87C258.214 207.33 257.808 207.813 257.348 208.319L253.691 212.298L253.231 210.895H261.235V214H250.609ZM267.925 214.23C266.683 214.23 265.594 213.962 264.659 213.425C263.739 212.888 262.888 211.968 262.106 210.665L264.636 209.055C264.988 209.592 265.341 210.029 265.694 210.366C266.062 210.703 266.445 210.949 266.844 211.102C267.242 211.255 267.656 211.332 268.086 211.332C268.546 211.332 268.975 211.225 269.374 211.01C269.772 210.795 270.087 210.496 270.317 210.113C270.562 209.714 270.685 209.262 270.685 208.756C270.685 208.235 270.585 207.798 270.386 207.445C270.186 207.092 269.895 206.824 269.512 206.64C269.128 206.456 268.676 206.364 268.155 206.364C267.925 206.364 267.672 206.387 267.396 206.433C267.12 206.479 266.836 206.556 266.545 206.663C266.253 206.755 265.939 206.87 265.602 207.008L264.797 204.892L269.052 200.246L269.926 200.867L263.164 200.775V197.808H272.847L273.468 199.073L268.155 204.823L267.35 203.88C267.472 203.819 267.672 203.765 267.948 203.719C268.239 203.658 268.507 203.627 268.753 203.627C269.458 203.627 270.117 203.757 270.731 204.018C271.344 204.279 271.888 204.639 272.364 205.099C272.839 205.559 273.207 206.096 273.468 206.709C273.744 207.322 273.882 207.982 273.882 208.687C273.882 209.745 273.613 210.696 273.077 211.539C272.555 212.367 271.842 213.026 270.938 213.517C270.048 213.992 269.044 214.23 267.925 214.23Z" fill="black"/>
<rect x="443.172" y="76.2648" width="39.5576" height="16.7452" transform="rotate(-160 443.172 76.2648)" fill="#CFFDD0"/>
<path d="M355 91L347 69" stroke="#CEF7D0" stroke-width="5"/>
<rect x="386.268" y="55.9322" width="26.8898" height="16.7452" transform="rotate(-160 386.268 55.9322)" fill="#CFFDD0"/>
<rect x="490.268" y="91.9322" width="26.8898" height="16.7452" transform="rotate(-160 490.268 91.9322)" fill="#CFFDD0"/>
<g clip-path="url(#clip0_0_1)">
<path d="M408.583 169.708C403.854 168.479 402.333 167.208 402.333 165.229C402.333 162.958 404.438 161.375 407.958 161.375C411.667 161.375 413.042 163.146 413.167 165.75H417.771C417.625 162.167 415.438 158.875 411.083 157.812V153.25H404.833V157.75C400.792 158.625 397.542 161.25 397.542 165.271C397.542 170.083 401.521 172.479 407.333 173.875C412.542 175.125 413.583 176.958 413.583 178.896C413.583 180.333 412.563 182.625 407.958 182.625C403.667 182.625 401.979 180.708 401.75 178.25H397.167C397.417 182.812 400.833 185.375 404.833 186.229V190.75H411.083V186.271C415.146 185.5 418.375 183.146 418.375 178.875C418.375 172.958 413.313 170.937 408.583 169.708Z" fill="#26A12A"/>
</g>
<defs>
<clipPath id="clip0_0_1">
<rect width="50" height="50" fill="white" transform="translate(384 147)"/>
</clipPath>
</defs>
</svg>
