<svg width="519" height="286" viewBox="0 0 519 286" fill="none" xmlns="http://www.w3.org/2000/svg">
<rect width="519" height="286" rx="8" fill="black"/>
<rect x="487.87" y="100.161" width="129.691" height="53" transform="rotate(-160 487.87 100.161)" fill="#26A12A" fill-opacity="0.4"/>
<path d="M49.61 62L48.851 60.114L53.612 54.847C53.8727 54.571 54.1487 54.249 54.44 53.881C54.7467 53.513 55.038 53.1373 55.314 52.754C55.6053 52.3553 55.8353 51.972 56.004 51.604C56.1727 51.2207 56.257 50.8757 56.257 50.569C56.257 50.2163 56.1803 49.9097 56.027 49.649C55.8737 49.373 55.6513 49.1583 55.36 49.005C55.0687 48.8517 54.7083 48.775 54.279 48.775C53.8803 48.775 53.5047 48.8823 53.152 49.097C52.7993 49.2963 52.4697 49.5953 52.163 49.994C51.8563 50.3927 51.588 50.8757 51.358 51.443L48.782 49.994C49.0887 49.1047 49.5257 48.3303 50.093 47.671C50.6603 47.0117 51.335 46.498 52.117 46.13C52.899 45.762 53.7347 45.578 54.624 45.578C55.5593 45.5933 56.4027 45.7927 57.154 46.176C57.9053 46.5593 58.4957 47.096 58.925 47.786C59.3543 48.476 59.569 49.2733 59.569 50.178C59.569 50.5153 59.5307 50.8603 59.454 51.213C59.3927 51.5657 59.2777 51.9337 59.109 52.317C58.9557 52.7003 58.7487 53.1067 58.488 53.536C58.2427 53.95 57.936 54.3947 57.568 54.87C57.2153 55.33 56.809 55.813 56.349 56.319L52.692 60.298L52.232 58.895H60.236V62H49.61ZM68.0986 62.23C66.7186 62.23 65.5379 61.9003 64.5566 61.241C63.5906 60.5817 62.8469 59.6387 62.3256 58.412C61.8196 57.17 61.5666 55.6827 61.5666 53.95C61.5666 52.2173 61.8196 50.7377 62.3256 49.511C62.8469 48.269 63.5906 47.3183 64.5566 46.659C65.5379 45.9997 66.7186 45.67 68.0986 45.67C69.4786 45.67 70.6593 45.9997 71.6406 46.659C72.6219 47.3183 73.3656 48.269 73.8716 49.511C74.3929 50.7377 74.6536 52.2173 74.6536 53.95C74.6536 55.6827 74.3929 57.17 73.8716 58.412C73.3656 59.6387 72.6219 60.5817 71.6406 61.241C70.6593 61.9003 69.4786 62.23 68.0986 62.23ZM68.0986 59.263C69.1259 59.263 69.9233 58.803 70.4906 57.883C71.0579 56.963 71.3416 55.652 71.3416 53.95C71.3416 52.2173 71.0579 50.8833 70.4906 49.948C69.9233 49.0127 69.1259 48.545 68.0986 48.545C67.0559 48.545 66.2509 49.0127 65.6836 49.948C65.1316 50.8833 64.8556 52.2173 64.8556 53.95C64.8556 55.652 65.1316 56.963 65.6836 57.883C66.2509 58.803 67.0559 59.263 68.0986 59.263ZM79.238 62L89.887 45.9H92.969L82.205 62H79.238ZM80.434 54.433C79.6826 54.433 79.008 54.2413 78.41 53.858C77.8273 53.4747 77.3673 52.9533 77.03 52.294C76.708 51.6193 76.547 50.8527 76.547 49.994C76.547 49.1353 76.708 48.3687 77.03 47.694C77.3673 47.004 77.8273 46.475 78.41 46.107C78.9926 45.7237 79.6673 45.532 80.434 45.532C81.2006 45.532 81.8676 45.7237 82.435 46.107C83.0176 46.475 83.47 47.004 83.792 47.694C84.1293 48.3687 84.298 49.1353 84.298 49.994C84.298 50.8373 84.1293 51.5963 83.792 52.271C83.4546 52.9303 82.9946 53.4593 82.412 53.858C81.8293 54.2413 81.17 54.433 80.434 54.433ZM80.434 52.271C80.71 52.271 80.9476 52.179 81.147 51.995C81.3463 51.811 81.492 51.5503 81.584 51.213C81.6913 50.8603 81.745 50.454 81.745 49.994C81.745 49.534 81.6913 49.1277 81.584 48.775C81.492 48.4223 81.3463 48.154 81.147 47.97C80.9476 47.786 80.71 47.694 80.434 47.694C80.158 47.694 79.9126 47.7937 79.698 47.993C79.4986 48.177 79.3453 48.4453 79.238 48.798C79.1306 49.1353 79.077 49.534 79.077 49.994C79.077 50.454 79.1306 50.8603 79.238 51.213C79.3453 51.5503 79.4986 51.811 79.698 51.995C79.9126 52.179 80.158 52.271 80.434 52.271ZM92.026 62.207C91.2746 62.207 90.6 62.0153 90.002 61.632C89.4193 61.2487 88.9593 60.7273 88.622 60.068C88.2846 59.3933 88.116 58.6343 88.116 57.791C88.116 56.917 88.277 56.1427 88.599 55.468C88.9363 54.7933 89.3963 54.2643 89.979 53.881C90.577 53.4977 91.2593 53.306 92.026 53.306C92.7773 53.306 93.4443 53.4977 94.027 53.881C94.6096 54.2643 95.062 54.7933 95.384 55.468C95.706 56.1427 95.867 56.917 95.867 57.791C95.867 58.619 95.6983 59.3703 95.361 60.045C95.0236 60.7197 94.5636 61.2487 93.981 61.632C93.4136 62.0153 92.762 62.207 92.026 62.207ZM92.026 60.068C92.2866 60.068 92.5166 59.976 92.716 59.792C92.9306 59.5927 93.0916 59.3243 93.199 58.987C93.3063 58.6497 93.36 58.251 93.36 57.791C93.36 57.3157 93.3063 56.9093 93.199 56.572C93.0916 56.2193 92.9306 55.951 92.716 55.767C92.5166 55.5677 92.2866 55.468 92.026 55.468C91.7346 55.468 91.4893 55.5677 91.29 55.767C91.0906 55.951 90.9296 56.2193 90.807 56.572C90.6996 56.9093 90.646 57.3157 90.646 57.791C90.646 58.251 90.6996 58.6497 90.807 58.987C90.9143 59.3243 91.0676 59.5927 91.267 59.792C91.4816 59.976 91.7346 60.068 92.026 60.068ZM105.606 67.06V49.833H108.757L108.849 52.57L108.251 52.363C108.358 51.8723 108.619 51.42 109.033 51.006C109.462 50.592 109.991 50.2547 110.62 49.994C111.248 49.7333 111.908 49.603 112.598 49.603C113.656 49.603 114.591 49.879 115.404 50.431C116.232 50.9677 116.883 51.7113 117.359 52.662C117.849 53.5973 118.095 54.6783 118.095 55.905C118.095 57.1163 117.857 58.1973 117.382 59.148C116.906 60.0987 116.255 60.85 115.427 61.402C114.599 61.9387 113.656 62.207 112.598 62.207C111.892 62.207 111.218 62.0767 110.574 61.816C109.945 61.54 109.408 61.1797 108.964 60.735C108.519 60.2903 108.243 59.815 108.136 59.309L108.895 58.987V67.06H105.606ZM111.862 59.401C112.46 59.401 112.989 59.2553 113.449 58.964C113.909 58.6727 114.269 58.2663 114.53 57.745C114.79 57.2083 114.921 56.595 114.921 55.905C114.921 55.215 114.79 54.6093 114.53 54.088C114.269 53.5667 113.909 53.1603 113.449 52.869C113.004 52.5777 112.475 52.432 111.862 52.432C111.248 52.432 110.712 52.5777 110.252 52.869C109.792 53.145 109.431 53.5513 109.171 54.088C108.91 54.6093 108.78 55.215 108.78 55.905C108.78 56.595 108.91 57.2083 109.171 57.745C109.431 58.2663 109.792 58.6727 110.252 58.964C110.712 59.2553 111.248 59.401 111.862 59.401ZM120.565 62V49.833H123.716L123.831 53.743L123.279 52.938C123.463 52.3093 123.762 51.742 124.176 51.236C124.59 50.7147 125.073 50.3083 125.625 50.017C126.192 49.7257 126.782 49.58 127.396 49.58C127.656 49.58 127.909 49.603 128.155 49.649C128.4 49.695 128.607 49.7487 128.776 49.81L127.902 53.398C127.718 53.306 127.495 53.2293 127.235 53.168C126.974 53.0913 126.706 53.053 126.43 53.053C126.062 53.053 125.717 53.122 125.395 53.26C125.088 53.3827 124.82 53.5667 124.59 53.812C124.36 54.042 124.176 54.318 124.038 54.64C123.915 54.962 123.854 55.3147 123.854 55.698V62H120.565ZM135.791 62.23C134.549 62.23 133.437 61.9617 132.456 61.425C131.49 60.873 130.723 60.1217 130.156 59.171C129.604 58.2203 129.328 57.1317 129.328 55.905C129.328 54.6783 129.604 53.5973 130.156 52.662C130.723 51.7113 131.49 50.96 132.456 50.408C133.437 49.856 134.549 49.58 135.791 49.58C137.018 49.58 138.114 49.856 139.08 50.408C140.061 50.96 140.828 51.7113 141.38 52.662C141.932 53.5973 142.208 54.6783 142.208 55.905C142.208 57.1317 141.932 58.2203 141.38 59.171C140.828 60.1217 140.061 60.873 139.08 61.425C138.114 61.9617 137.018 62.23 135.791 62.23ZM135.791 59.378C136.389 59.378 136.926 59.2323 137.401 58.941C137.876 58.6343 138.244 58.2203 138.505 57.699C138.781 57.1623 138.919 56.5643 138.919 55.905C138.919 55.2303 138.781 54.6323 138.505 54.111C138.244 53.5743 137.876 53.1603 137.401 52.869C136.926 52.5623 136.389 52.409 135.791 52.409C135.178 52.409 134.633 52.5623 134.158 52.869C133.683 53.1757 133.307 53.5897 133.031 54.111C132.755 54.6323 132.625 55.2303 132.64 55.905C132.625 56.5643 132.755 57.1623 133.031 57.699C133.307 58.2203 133.683 58.6343 134.158 58.941C134.633 59.2323 135.178 59.378 135.791 59.378ZM144.642 62V49.833H147.793L147.862 52.156L147.379 52.248C147.548 51.8493 147.77 51.489 148.046 51.167C148.322 50.845 148.644 50.569 149.012 50.339C149.396 50.109 149.794 49.9327 150.208 49.81C150.622 49.672 151.036 49.603 151.45 49.603C152.079 49.603 152.646 49.7027 153.152 49.902C153.658 50.1013 154.088 50.4157 154.44 50.845C154.793 51.259 155.069 51.811 155.268 52.501L154.762 52.455L154.923 52.087C155.123 51.719 155.376 51.3893 155.682 51.098C155.989 50.7913 156.334 50.5307 156.717 50.316C157.101 50.086 157.499 49.9097 157.913 49.787C158.327 49.6643 158.734 49.603 159.132 49.603C160.083 49.603 160.873 49.7947 161.501 50.178C162.13 50.546 162.598 51.1057 162.904 51.857C163.226 52.6083 163.387 53.5283 163.387 54.617V62H160.121V54.847C160.121 54.295 160.045 53.8427 159.891 53.49C159.738 53.1373 159.516 52.8767 159.224 52.708C158.933 52.524 158.557 52.432 158.097 52.432C157.745 52.432 157.415 52.4933 157.108 52.616C156.817 52.7233 156.556 52.8843 156.326 53.099C156.112 53.2983 155.943 53.536 155.82 53.812C155.698 54.088 155.636 54.3947 155.636 54.732V62H152.37V54.824C152.37 54.318 152.286 53.8887 152.117 53.536C151.964 53.168 151.742 52.892 151.45 52.708C151.159 52.524 150.799 52.432 150.369 52.432C150.017 52.432 149.687 52.4933 149.38 52.616C149.089 52.7233 148.836 52.8843 148.621 53.099C148.407 53.2983 148.23 53.536 148.092 53.812C147.97 54.088 147.908 54.387 147.908 54.709V62H144.642ZM172.155 62.23C170.913 62.23 169.802 61.9617 168.82 61.425C167.854 60.873 167.088 60.1217 166.52 59.171C165.968 58.2203 165.692 57.1317 165.692 55.905C165.692 54.6783 165.968 53.5973 166.52 52.662C167.088 51.7113 167.854 50.96 168.82 50.408C169.802 49.856 170.913 49.58 172.155 49.58C173.382 49.58 174.478 49.856 175.444 50.408C176.426 50.96 177.192 51.7113 177.744 52.662C178.296 53.5973 178.572 54.6783 178.572 55.905C178.572 57.1317 178.296 58.2203 177.744 59.171C177.192 60.1217 176.426 60.873 175.444 61.425C174.478 61.9617 173.382 62.23 172.155 62.23ZM172.155 59.378C172.753 59.378 173.29 59.2323 173.765 58.941C174.241 58.6343 174.609 58.2203 174.869 57.699C175.145 57.1623 175.283 56.5643 175.283 55.905C175.283 55.2303 175.145 54.6323 174.869 54.111C174.609 53.5743 174.241 53.1603 173.765 52.869C173.29 52.5623 172.753 52.409 172.155 52.409C171.542 52.409 170.998 52.5623 170.522 52.869C170.047 53.1757 169.671 53.5897 169.395 54.111C169.119 54.6323 168.989 55.2303 169.004 55.905C168.989 56.5643 169.119 57.1623 169.395 57.699C169.671 58.2203 170.047 58.6343 170.522 58.941C170.998 59.2323 171.542 59.378 172.155 59.378ZM193.74 62.23C192.498 62.23 191.387 61.9617 190.405 61.425C189.439 60.873 188.673 60.1217 188.105 59.171C187.553 58.2203 187.277 57.1317 187.277 55.905C187.277 54.6783 187.553 53.5973 188.105 52.662C188.673 51.7113 189.439 50.96 190.405 50.408C191.387 49.856 192.498 49.58 193.74 49.58C194.967 49.58 196.063 49.856 197.029 50.408C198.011 50.96 198.777 51.7113 199.329 52.662C199.881 53.5973 200.157 54.6783 200.157 55.905C200.157 57.1317 199.881 58.2203 199.329 59.171C198.777 60.1217 198.011 60.873 197.029 61.425C196.063 61.9617 194.967 62.23 193.74 62.23ZM193.74 59.378C194.338 59.378 194.875 59.2323 195.35 58.941C195.826 58.6343 196.194 58.2203 196.454 57.699C196.73 57.1623 196.868 56.5643 196.868 55.905C196.868 55.2303 196.73 54.6323 196.454 54.111C196.194 53.5743 195.826 53.1603 195.35 52.869C194.875 52.5623 194.338 52.409 193.74 52.409C193.127 52.409 192.583 52.5623 192.107 52.869C191.632 53.1757 191.256 53.5897 190.98 54.111C190.704 54.6323 190.574 55.2303 190.589 55.905C190.574 56.5643 190.704 57.1623 190.98 57.699C191.256 58.2203 191.632 58.6343 192.107 58.941C192.583 59.2323 193.127 59.378 193.74 59.378ZM203.108 62V48.982C203.108 48.2307 203.277 47.5483 203.614 46.935C203.952 46.3217 204.412 45.8387 204.994 45.486C205.592 45.1333 206.29 44.957 207.087 44.957C207.624 44.957 208.13 45.049 208.605 45.233C209.081 45.4017 209.487 45.6393 209.824 45.946L208.858 48.338C208.659 48.2153 208.452 48.1157 208.237 48.039C208.038 47.947 207.854 47.901 207.685 47.901C207.394 47.901 207.149 47.9547 206.949 48.062C206.765 48.154 206.627 48.2997 206.535 48.499C206.443 48.683 206.397 48.9207 206.397 49.212V62H204.764C204.412 62 204.097 62 203.821 62C203.545 62 203.308 62 203.108 62ZM201.291 52.892V50.132H209.019V52.892H201.291ZM212.147 62V48.982C212.147 48.2307 212.316 47.5483 212.653 46.935C212.991 46.3217 213.451 45.8387 214.033 45.486C214.631 45.1333 215.329 44.957 216.126 44.957C216.663 44.957 217.169 45.049 217.644 45.233C218.12 45.4017 218.526 45.6393 218.863 45.946L217.897 48.338C217.698 48.2153 217.491 48.1157 217.276 48.039C217.077 47.947 216.893 47.901 216.724 47.901C216.433 47.901 216.188 47.9547 215.988 48.062C215.804 48.154 215.666 48.2997 215.574 48.499C215.482 48.683 215.436 48.9207 215.436 49.212V62H213.803C213.451 62 213.136 62 212.86 62C212.584 62 212.347 62 212.147 62ZM210.33 52.892V50.132H218.058V52.892H210.33ZM225.57 62.23C224.251 62.23 223.101 61.9617 222.12 61.425C221.139 60.8883 220.372 60.1523 219.82 59.217C219.268 58.2817 218.992 57.2083 218.992 55.997C218.992 55.0617 219.145 54.203 219.452 53.421C219.759 52.639 220.188 51.9643 220.74 51.397C221.292 50.8143 221.944 50.3697 222.695 50.063C223.462 49.741 224.29 49.58 225.179 49.58C226.007 49.58 226.774 49.7333 227.479 50.04C228.184 50.3313 228.79 50.753 229.296 51.305C229.817 51.8417 230.216 52.478 230.492 53.214C230.768 53.95 230.891 54.755 230.86 55.629L230.837 56.641H221.062L220.533 54.64H228.146L227.778 55.054V54.548C227.747 54.134 227.609 53.7583 227.364 53.421C227.134 53.0837 226.835 52.823 226.467 52.639C226.099 52.455 225.685 52.363 225.225 52.363C224.55 52.363 223.975 52.4933 223.5 52.754C223.04 53.0147 222.687 53.398 222.442 53.904C222.197 54.41 222.074 55.0233 222.074 55.744C222.074 56.48 222.227 57.1163 222.534 57.653C222.856 58.1897 223.301 58.6113 223.868 58.918C224.451 59.2093 225.133 59.355 225.915 59.355C226.452 59.355 226.942 59.2707 227.387 59.102C227.832 58.9333 228.307 58.642 228.813 58.228L230.377 60.413C229.932 60.8117 229.442 61.149 228.905 61.425C228.368 61.6857 227.816 61.885 227.249 62.023C226.682 62.161 226.122 62.23 225.57 62.23ZM233.274 62V49.833H236.425L236.54 53.743L235.988 52.938C236.172 52.3093 236.471 51.742 236.885 51.236C237.299 50.7147 237.782 50.3083 238.334 50.017C238.901 49.7257 239.491 49.58 240.105 49.58C240.365 49.58 240.618 49.603 240.864 49.649C241.109 49.695 241.316 49.7487 241.485 49.81L240.611 53.398C240.427 53.306 240.204 53.2293 239.944 53.168C239.683 53.0913 239.415 53.053 239.139 53.053C238.771 53.053 238.426 53.122 238.104 53.26C237.797 53.3827 237.529 53.5667 237.299 53.812C237.069 54.042 236.885 54.318 236.747 54.64C236.624 54.962 236.563 55.3147 236.563 55.698V62H233.274Z" fill="white"/>
<path d="M51.684 123.76C51.236 123.76 50.788 123.688 50.34 123.544C49.9 123.408 49.544 123.228 49.272 123.004L49.728 122.044C49.888 122.164 50.076 122.268 50.292 122.356C50.508 122.452 50.736 122.524 50.976 122.572C51.216 122.628 51.452 122.656 51.684 122.656C52.124 122.656 52.492 122.584 52.788 122.44C53.084 122.296 53.308 122.084 53.46 121.804C53.612 121.524 53.688 121.176 53.688 120.76V119.548L53.82 119.632C53.78 119.88 53.648 120.12 53.424 120.352C53.208 120.576 52.936 120.76 52.608 120.904C52.28 121.048 51.944 121.12 51.6 121.12C51 121.12 50.464 120.98 49.992 120.7C49.528 120.412 49.16 120.024 48.888 119.536C48.616 119.04 48.48 118.476 48.48 117.844C48.48 117.212 48.612 116.652 48.876 116.164C49.148 115.668 49.516 115.28 49.98 115C50.452 114.712 50.98 114.568 51.564 114.568C51.804 114.568 52.036 114.6 52.26 114.664C52.484 114.72 52.692 114.804 52.884 114.916C53.076 115.02 53.248 115.136 53.4 115.264C53.552 115.392 53.676 115.528 53.772 115.672C53.868 115.816 53.928 115.952 53.952 116.08L53.688 116.176V114.7H54.924V120.616C54.924 121.12 54.848 121.564 54.696 121.948C54.552 122.34 54.34 122.668 54.06 122.932C53.78 123.204 53.44 123.408 53.04 123.544C52.64 123.688 52.188 123.76 51.684 123.76ZM51.732 119.98C52.124 119.98 52.472 119.888 52.776 119.704C53.08 119.52 53.316 119.268 53.484 118.948C53.652 118.628 53.736 118.26 53.736 117.844C53.736 117.428 53.648 117.06 53.472 116.74C53.304 116.412 53.068 116.156 52.764 115.972C52.468 115.788 52.124 115.696 51.732 115.696C51.348 115.696 51.004 115.792 50.7 115.984C50.404 116.168 50.168 116.424 49.992 116.752C49.824 117.072 49.74 117.436 49.74 117.844C49.74 118.252 49.824 118.62 49.992 118.948C50.168 119.268 50.404 119.52 50.7 119.704C51.004 119.888 51.348 119.98 51.732 119.98ZM59.597 121.12C58.949 121.12 58.373 120.984 57.869 120.712C57.373 120.432 56.981 120.052 56.693 119.572C56.413 119.092 56.273 118.54 56.273 117.916C56.273 117.42 56.353 116.968 56.513 116.56C56.673 116.152 56.893 115.8 57.173 115.504C57.461 115.2 57.801 114.968 58.193 114.808C58.593 114.64 59.025 114.556 59.489 114.556C59.897 114.556 60.277 114.636 60.629 114.796C60.981 114.948 61.285 115.16 61.541 115.432C61.805 115.704 62.005 116.028 62.141 116.404C62.285 116.772 62.353 117.176 62.345 117.616L62.333 118.144H57.185L56.909 117.16H61.265L61.085 117.364V117.076C61.061 116.812 60.973 116.576 60.821 116.368C60.669 116.16 60.477 115.996 60.245 115.876C60.013 115.756 59.761 115.696 59.489 115.696C59.057 115.696 58.693 115.78 58.397 115.948C58.101 116.108 57.877 116.348 57.725 116.668C57.573 116.98 57.497 117.368 57.497 117.832C57.497 118.272 57.589 118.656 57.773 118.984C57.957 119.304 58.217 119.552 58.553 119.728C58.889 119.904 59.277 119.992 59.717 119.992C60.029 119.992 60.317 119.94 60.581 119.836C60.853 119.732 61.145 119.544 61.457 119.272L62.081 120.148C61.889 120.34 61.653 120.508 61.373 120.652C61.101 120.796 60.809 120.912 60.497 121C60.193 121.08 59.893 121.12 59.597 121.12ZM64.4682 121V113.092H65.7042V121H64.4682ZM63.1602 115.9V114.7H67.1682V115.9H63.1602ZM71.909 121L71.513 120.016L74.081 117.124C74.217 116.98 74.357 116.816 74.501 116.632C74.653 116.44 74.797 116.244 74.933 116.044C75.069 115.844 75.177 115.648 75.257 115.456C75.345 115.256 75.389 115.068 75.389 114.892C75.389 114.636 75.337 114.42 75.233 114.244C75.137 114.06 74.993 113.92 74.801 113.824C74.617 113.728 74.393 113.68 74.129 113.68C73.897 113.68 73.669 113.748 73.445 113.884C73.221 114.02 73.017 114.212 72.833 114.46C72.649 114.708 72.505 114.996 72.401 115.324L71.405 114.7C71.541 114.236 71.745 113.84 72.017 113.512C72.297 113.176 72.629 112.92 73.013 112.744C73.405 112.568 73.829 112.48 74.285 112.48C74.757 112.48 75.177 112.58 75.545 112.78C75.913 112.972 76.201 113.244 76.409 113.596C76.617 113.94 76.721 114.34 76.721 114.796C76.721 114.98 76.701 115.168 76.661 115.36C76.621 115.552 76.557 115.752 76.469 115.96C76.381 116.16 76.269 116.372 76.133 116.596C75.997 116.812 75.833 117.04 75.641 117.28C75.457 117.52 75.245 117.772 75.005 118.036L73.097 120.112L72.857 119.752H76.985V121H71.909ZM81.0032 121.12C80.3632 121.12 79.8112 120.944 79.3472 120.592C78.8912 120.24 78.5392 119.744 78.2912 119.104C78.0432 118.456 77.9192 117.688 77.9192 116.8C77.9192 115.912 78.0432 115.148 78.2912 114.508C78.5392 113.86 78.8912 113.36 79.3472 113.008C79.8112 112.656 80.3632 112.48 81.0032 112.48C81.6432 112.48 82.1952 112.656 82.6592 113.008C83.1232 113.36 83.4792 113.86 83.7272 114.508C83.9752 115.148 84.0992 115.912 84.0992 116.8C84.0992 117.688 83.9752 118.456 83.7272 119.104C83.4792 119.744 83.1232 120.24 82.6592 120.592C82.1952 120.944 81.6432 121.12 81.0032 121.12ZM81.0032 119.944C81.5872 119.944 82.0392 119.672 82.3592 119.128C82.6792 118.576 82.8392 117.8 82.8392 116.8C82.8392 115.8 82.6792 115.028 82.3592 114.484C82.0392 113.932 81.5872 113.656 81.0032 113.656C80.4192 113.656 79.9672 113.932 79.6472 114.484C79.3272 115.028 79.1672 115.8 79.1672 116.8C79.1672 117.8 79.3272 118.576 79.6472 119.128C79.9672 119.672 80.4192 119.944 81.0032 119.944ZM86.2043 121L91.7603 112.6H92.9963L87.3803 121H86.2043ZM86.9723 117.052C86.6123 117.052 86.2923 116.956 86.0123 116.764C85.7403 116.564 85.5243 116.296 85.3643 115.96C85.2123 115.616 85.1363 115.224 85.1363 114.784C85.1363 114.344 85.2123 113.952 85.3643 113.608C85.5243 113.256 85.7443 112.984 86.0243 112.792C86.3043 112.592 86.6243 112.492 86.9843 112.492C87.3443 112.492 87.6603 112.592 87.9323 112.792C88.2123 112.984 88.4283 113.256 88.5803 113.608C88.7403 113.952 88.8203 114.344 88.8203 114.784C88.8203 115.208 88.7403 115.592 88.5803 115.936C88.4203 116.28 88.2003 116.552 87.9203 116.752C87.6403 116.952 87.3243 117.052 86.9723 117.052ZM86.9843 116.152C87.1523 116.152 87.2963 116.096 87.4163 115.984C87.5443 115.872 87.6403 115.716 87.7043 115.516C87.7763 115.308 87.8123 115.064 87.8123 114.784C87.8123 114.504 87.7763 114.26 87.7043 114.052C87.6403 113.844 87.5443 113.684 87.4163 113.572C87.2963 113.46 87.1483 113.404 86.9723 113.404C86.8043 113.404 86.6563 113.464 86.5283 113.584C86.4003 113.696 86.3003 113.856 86.2283 114.064C86.1643 114.264 86.1323 114.504 86.1323 114.784C86.1323 115.064 86.1643 115.308 86.2283 115.516C86.3003 115.716 86.4003 115.872 86.5283 115.984C86.6563 116.096 86.8083 116.152 86.9843 116.152ZM92.2883 121.108C91.9283 121.108 91.6083 121.008 91.3283 120.808C91.0563 120.608 90.8403 120.34 90.6803 120.004C90.5203 119.66 90.4403 119.272 90.4403 118.84C90.4403 118.4 90.5163 118.008 90.6683 117.664C90.8283 117.312 91.0483 117.04 91.3283 116.848C91.6083 116.648 91.9283 116.548 92.2883 116.548C92.6483 116.548 92.9643 116.648 93.2363 116.848C93.5163 117.04 93.7323 117.312 93.8843 117.664C94.0443 118.008 94.1243 118.4 94.1243 118.84C94.1243 119.264 94.0443 119.648 93.8843 119.992C93.7243 120.336 93.5043 120.608 93.2243 120.808C92.9523 121.008 92.6403 121.108 92.2883 121.108ZM92.2883 120.22C92.4563 120.22 92.6043 120.164 92.7323 120.052C92.8603 119.932 92.9563 119.772 93.0203 119.572C93.0923 119.364 93.1283 119.12 93.1283 118.84C93.1283 118.56 93.0923 118.32 93.0203 118.12C92.9563 117.912 92.8603 117.752 92.7323 117.64C92.6043 117.52 92.4563 117.46 92.2883 117.46C92.1123 117.46 91.9603 117.516 91.8323 117.628C91.7043 117.74 91.6043 117.9 91.5323 118.108C91.4683 118.316 91.4362 118.56 91.4362 118.84C91.4362 119.12 91.4683 119.364 91.5323 119.572C91.6043 119.772 91.7043 119.932 91.8323 120.052C91.9603 120.164 92.1123 120.22 92.2883 120.22ZM101.782 121.12C101.166 121.12 100.614 120.98 100.126 120.7C99.6459 120.412 99.2659 120.024 98.9859 119.536C98.7059 119.04 98.5659 118.476 98.5659 117.844C98.5659 117.212 98.7059 116.652 98.9859 116.164C99.2659 115.668 99.6459 115.28 100.126 115C100.614 114.712 101.166 114.568 101.782 114.568C102.39 114.568 102.934 114.712 103.414 115C103.902 115.28 104.286 115.668 104.566 116.164C104.846 116.652 104.986 117.212 104.986 117.844C104.986 118.476 104.846 119.04 104.566 119.536C104.286 120.024 103.902 120.412 103.414 120.7C102.934 120.98 102.39 121.12 101.782 121.12ZM101.782 119.992C102.158 119.992 102.494 119.9 102.79 119.716C103.086 119.524 103.318 119.268 103.486 118.948C103.654 118.62 103.734 118.252 103.726 117.844C103.734 117.428 103.654 117.06 103.486 116.74C103.318 116.412 103.086 116.156 102.79 115.972C102.494 115.788 102.158 115.696 101.782 115.696C101.406 115.696 101.066 115.792 100.762 115.984C100.466 116.168 100.234 116.424 100.066 116.752C99.8979 117.072 99.8179 117.436 99.8259 117.844C99.8179 118.252 99.8979 118.62 100.066 118.948C100.234 119.268 100.466 119.524 100.762 119.716C101.066 119.9 101.406 119.992 101.782 119.992ZM106.782 121V113.992C106.782 113.632 106.862 113.312 107.022 113.032C107.182 112.752 107.402 112.532 107.682 112.372C107.962 112.212 108.286 112.132 108.654 112.132C108.91 112.132 109.15 112.18 109.374 112.276C109.598 112.372 109.778 112.5 109.914 112.66L109.494 113.608C109.39 113.512 109.274 113.436 109.146 113.38C109.026 113.316 108.91 113.284 108.798 113.284C108.63 113.284 108.486 113.312 108.366 113.368C108.254 113.416 108.17 113.496 108.114 113.608C108.058 113.712 108.03 113.84 108.03 113.992V121H107.406C107.302 121 107.198 121 107.094 121C106.99 121 106.886 121 106.782 121ZM105.774 115.948V114.808H109.518V115.948H105.774ZM111.498 121V113.992C111.498 113.632 111.578 113.312 111.738 113.032C111.898 112.752 112.118 112.532 112.398 112.372C112.678 112.212 113.002 112.132 113.37 112.132C113.626 112.132 113.866 112.18 114.09 112.276C114.314 112.372 114.494 112.5 114.63 112.66L114.21 113.608C114.106 113.512 113.99 113.436 113.862 113.38C113.742 113.316 113.626 113.284 113.514 113.284C113.346 113.284 113.202 113.312 113.082 113.368C112.97 113.416 112.886 113.496 112.83 113.608C112.774 113.712 112.746 113.84 112.746 113.992V121H112.122C112.018 121 111.914 121 111.81 121C111.706 121 111.602 121 111.498 121ZM110.49 115.948V114.808H114.234V115.948H110.49ZM121.727 121.12C121.111 121.12 120.559 120.98 120.071 120.7C119.591 120.412 119.211 120.024 118.931 119.536C118.651 119.04 118.511 118.476 118.511 117.844C118.511 117.212 118.651 116.652 118.931 116.164C119.211 115.668 119.591 115.28 120.071 115C120.559 114.712 121.111 114.568 121.727 114.568C122.335 114.568 122.879 114.712 123.359 115C123.847 115.28 124.231 115.668 124.511 116.164C124.791 116.652 124.931 117.212 124.931 117.844C124.931 118.476 124.791 119.04 124.511 119.536C124.231 120.024 123.847 120.412 123.359 120.7C122.879 120.98 122.335 121.12 121.727 121.12ZM121.727 119.992C122.103 119.992 122.439 119.9 122.735 119.716C123.031 119.524 123.263 119.268 123.431 118.948C123.599 118.62 123.679 118.252 123.671 117.844C123.679 117.428 123.599 117.06 123.431 116.74C123.263 116.412 123.031 116.156 122.735 115.972C122.439 115.788 122.103 115.696 121.727 115.696C121.351 115.696 121.011 115.792 120.707 115.984C120.411 116.168 120.179 116.424 120.011 116.752C119.843 117.072 119.763 117.436 119.771 117.844C119.763 118.252 119.843 118.62 120.011 118.948C120.179 119.268 120.411 119.524 120.707 119.716C121.011 119.9 121.351 119.992 121.727 119.992ZM126.278 121V114.7H127.514V115.996L127.298 116.14C127.378 115.86 127.534 115.604 127.766 115.372C127.998 115.132 128.274 114.94 128.594 114.796C128.914 114.644 129.242 114.568 129.578 114.568C130.058 114.568 130.458 114.664 130.778 114.856C131.098 115.04 131.338 115.324 131.498 115.708C131.658 116.092 131.738 116.576 131.738 117.16V121H130.502V117.244C130.502 116.884 130.454 116.588 130.358 116.356C130.262 116.116 130.114 115.944 129.914 115.84C129.714 115.728 129.466 115.68 129.17 115.696C128.93 115.696 128.71 115.736 128.51 115.816C128.31 115.888 128.134 115.992 127.982 116.128C127.838 116.264 127.722 116.424 127.634 116.608C127.554 116.784 127.514 116.976 127.514 117.184V121H126.902C126.798 121 126.694 121 126.59 121C126.486 121 126.382 121 126.278 121ZM139.718 121.12C139.07 121.12 138.494 120.984 137.99 120.712C137.494 120.432 137.102 120.052 136.814 119.572C136.534 119.092 136.394 118.54 136.394 117.916C136.394 117.42 136.474 116.968 136.634 116.56C136.794 116.152 137.014 115.8 137.294 115.504C137.582 115.2 137.922 114.968 138.314 114.808C138.714 114.64 139.146 114.556 139.61 114.556C140.018 114.556 140.398 114.636 140.75 114.796C141.102 114.948 141.406 115.16 141.662 115.432C141.926 115.704 142.126 116.028 142.262 116.404C142.406 116.772 142.474 117.176 142.466 117.616L142.454 118.144H137.306L137.03 117.16H141.386L141.206 117.364V117.076C141.182 116.812 141.094 116.576 140.942 116.368C140.79 116.16 140.598 115.996 140.366 115.876C140.134 115.756 139.882 115.696 139.61 115.696C139.178 115.696 138.814 115.78 138.518 115.948C138.222 116.108 137.998 116.348 137.846 116.668C137.694 116.98 137.618 117.368 137.618 117.832C137.618 118.272 137.71 118.656 137.894 118.984C138.078 119.304 138.338 119.552 138.674 119.728C139.01 119.904 139.398 119.992 139.838 119.992C140.15 119.992 140.438 119.94 140.702 119.836C140.974 119.732 141.266 119.544 141.578 119.272L142.202 120.148C142.01 120.34 141.774 120.508 141.494 120.652C141.222 120.796 140.93 120.912 140.618 121C140.314 121.08 140.014 121.12 139.718 121.12ZM145.756 121L143.092 114.7H144.424L146.344 119.416L146.116 119.524L148.168 114.7H149.44L146.644 121H145.756ZM153.335 121.12C152.687 121.12 152.111 120.984 151.607 120.712C151.111 120.432 150.719 120.052 150.431 119.572C150.151 119.092 150.011 118.54 150.011 117.916C150.011 117.42 150.091 116.968 150.251 116.56C150.411 116.152 150.631 115.8 150.911 115.504C151.199 115.2 151.539 114.968 151.931 114.808C152.331 114.64 152.763 114.556 153.227 114.556C153.635 114.556 154.015 114.636 154.367 114.796C154.719 114.948 155.023 115.16 155.279 115.432C155.543 115.704 155.743 116.028 155.879 116.404C156.023 116.772 156.091 117.176 156.083 117.616L156.071 118.144H150.923L150.647 117.16H155.003L154.823 117.364V117.076C154.799 116.812 154.711 116.576 154.559 116.368C154.407 116.16 154.215 115.996 153.983 115.876C153.751 115.756 153.499 115.696 153.227 115.696C152.795 115.696 152.431 115.78 152.135 115.948C151.839 116.108 151.615 116.348 151.463 116.668C151.311 116.98 151.235 117.368 151.235 117.832C151.235 118.272 151.327 118.656 151.511 118.984C151.695 119.304 151.955 119.552 152.291 119.728C152.627 119.904 153.015 119.992 153.455 119.992C153.767 119.992 154.055 119.94 154.319 119.836C154.591 119.732 154.883 119.544 155.195 119.272L155.819 120.148C155.627 120.34 155.391 120.508 155.111 120.652C154.839 120.796 154.547 120.912 154.235 121C153.931 121.08 153.631 121.12 153.335 121.12ZM157.427 121V114.7H158.675V116.68L158.555 116.2C158.643 115.896 158.791 115.62 158.999 115.372C159.215 115.124 159.459 114.928 159.73 114.784C160.011 114.64 160.299 114.568 160.595 114.568C160.731 114.568 160.859 114.58 160.979 114.604C161.107 114.628 161.207 114.656 161.279 114.688L160.955 116.032C160.859 115.992 160.751 115.96 160.631 115.936C160.519 115.904 160.407 115.888 160.295 115.888C160.079 115.888 159.871 115.932 159.671 116.02C159.479 116.1 159.307 116.216 159.155 116.368C159.011 116.512 158.895 116.684 158.807 116.884C158.719 117.076 158.675 117.288 158.675 117.52V121H157.427ZM163.322 123.76L164.594 120.82L164.606 121.804L161.462 114.7H162.902L164.87 119.332C164.91 119.412 164.958 119.536 165.014 119.704C165.07 119.864 165.118 120.024 165.158 120.184L164.846 120.256C164.91 120.088 164.97 119.92 165.026 119.752C165.09 119.584 165.15 119.416 165.206 119.248L166.85 114.7H168.314L165.722 121L164.654 123.76H163.322ZM173.286 121V113.992C173.286 113.632 173.366 113.312 173.526 113.032C173.686 112.752 173.906 112.532 174.186 112.372C174.466 112.212 174.79 112.132 175.158 112.132C175.414 112.132 175.654 112.18 175.878 112.276C176.102 112.372 176.282 112.5 176.418 112.66L175.998 113.608C175.894 113.512 175.778 113.436 175.65 113.38C175.53 113.316 175.414 113.284 175.302 113.284C175.134 113.284 174.99 113.312 174.87 113.368C174.758 113.416 174.674 113.496 174.618 113.608C174.562 113.712 174.534 113.84 174.534 113.992V121H173.91C173.806 121 173.702 121 173.598 121C173.494 121 173.39 121 173.286 121ZM172.278 115.948V114.808H176.022V115.948H172.278ZM180.019 121.12C179.371 121.12 178.795 120.984 178.291 120.712C177.795 120.432 177.403 120.052 177.115 119.572C176.835 119.092 176.695 118.54 176.695 117.916C176.695 117.42 176.775 116.968 176.935 116.56C177.095 116.152 177.315 115.8 177.595 115.504C177.883 115.2 178.223 114.968 178.615 114.808C179.015 114.64 179.447 114.556 179.911 114.556C180.319 114.556 180.699 114.636 181.051 114.796C181.403 114.948 181.707 115.16 181.963 115.432C182.227 115.704 182.427 116.028 182.563 116.404C182.707 116.772 182.775 117.176 182.767 117.616L182.755 118.144H177.607L177.331 117.16H181.687L181.507 117.364V117.076C181.483 116.812 181.395 116.576 181.243 116.368C181.091 116.16 180.899 115.996 180.667 115.876C180.435 115.756 180.183 115.696 179.911 115.696C179.479 115.696 179.115 115.78 178.819 115.948C178.523 116.108 178.299 116.348 178.147 116.668C177.995 116.98 177.919 117.368 177.919 117.832C177.919 118.272 178.011 118.656 178.195 118.984C178.379 119.304 178.639 119.552 178.975 119.728C179.311 119.904 179.699 119.992 180.139 119.992C180.451 119.992 180.739 119.94 181.003 119.836C181.275 119.732 181.567 119.544 181.879 119.272L182.503 120.148C182.311 120.34 182.075 120.508 181.795 120.652C181.523 120.796 181.231 120.912 180.919 121C180.615 121.08 180.315 121.12 180.019 121.12ZM184.11 121V114.7H185.358V116.68L185.238 116.2C185.326 115.896 185.474 115.62 185.682 115.372C185.898 115.124 186.142 114.928 186.414 114.784C186.694 114.64 186.982 114.568 187.278 114.568C187.414 114.568 187.542 114.58 187.662 114.604C187.79 114.628 187.89 114.656 187.962 114.688L187.638 116.032C187.542 115.992 187.434 115.96 187.314 115.936C187.202 115.904 187.09 115.888 186.978 115.888C186.762 115.888 186.554 115.932 186.354 116.02C186.162 116.1 185.99 116.216 185.838 116.368C185.694 116.512 185.578 116.684 185.49 116.884C185.402 117.076 185.358 117.288 185.358 117.52V121H184.11ZM189.964 121V113.092H191.2V121H189.964ZM188.656 115.9V114.7H192.664V115.9H188.656ZM193.994 121V114.7H195.23V121H193.994ZM194.594 113.308C194.33 113.308 194.126 113.24 193.982 113.104C193.838 112.968 193.766 112.776 193.766 112.528C193.766 112.296 193.838 112.108 193.982 111.964C194.134 111.82 194.338 111.748 194.594 111.748C194.858 111.748 195.062 111.816 195.206 111.952C195.35 112.088 195.422 112.28 195.422 112.528C195.422 112.76 195.346 112.948 195.194 113.092C195.05 113.236 194.85 113.308 194.594 113.308ZM197.154 121V112.12H198.39V121H197.154ZM200.345 121V114.7H201.581V121H200.345ZM200.945 113.308C200.681 113.308 200.477 113.24 200.333 113.104C200.189 112.968 200.117 112.776 200.117 112.528C200.117 112.296 200.189 112.108 200.333 111.964C200.485 111.82 200.689 111.748 200.945 111.748C201.209 111.748 201.413 111.816 201.557 111.952C201.701 112.088 201.773 112.28 201.773 112.528C201.773 112.76 201.697 112.948 201.545 113.092C201.401 113.236 201.201 113.308 200.945 113.308ZM203.217 121V119.968L206.469 115.624V115.768H203.217V114.7H207.813V115.708L204.609 119.992L204.561 119.932H207.885V121H203.217ZM212.117 121.12C211.469 121.12 210.893 120.984 210.389 120.712C209.893 120.432 209.501 120.052 209.213 119.572C208.933 119.092 208.793 118.54 208.793 117.916C208.793 117.42 208.873 116.968 209.033 116.56C209.193 116.152 209.413 115.8 209.693 115.504C209.981 115.2 210.321 114.968 210.713 114.808C211.113 114.64 211.545 114.556 212.009 114.556C212.417 114.556 212.797 114.636 213.149 114.796C213.501 114.948 213.805 115.16 214.061 115.432C214.325 115.704 214.525 116.028 214.661 116.404C214.805 116.772 214.873 117.176 214.865 117.616L214.853 118.144H209.705L209.429 117.16H213.785L213.605 117.364V117.076C213.581 116.812 213.493 116.576 213.341 116.368C213.189 116.16 212.997 115.996 212.765 115.876C212.533 115.756 212.281 115.696 212.009 115.696C211.577 115.696 211.213 115.78 210.917 115.948C210.621 116.108 210.397 116.348 210.245 116.668C210.093 116.98 210.017 117.368 210.017 117.832C210.017 118.272 210.109 118.656 210.293 118.984C210.477 119.304 210.737 119.552 211.073 119.728C211.409 119.904 211.797 119.992 212.237 119.992C212.549 119.992 212.837 119.94 213.101 119.836C213.373 119.732 213.665 119.544 213.977 119.272L214.601 120.148C214.409 120.34 214.173 120.508 213.893 120.652C213.621 120.796 213.329 120.912 213.017 121C212.713 121.08 212.413 121.12 212.117 121.12ZM216.208 121V114.7H217.456V116.68L217.336 116.2C217.424 115.896 217.572 115.62 217.78 115.372C217.996 115.124 218.24 114.928 218.512 114.784C218.792 114.64 219.08 114.568 219.376 114.568C219.512 114.568 219.64 114.58 219.76 114.604C219.888 114.628 219.988 114.656 220.06 114.688L219.736 116.032C219.64 115.992 219.532 115.96 219.412 115.936C219.3 115.904 219.188 115.888 219.076 115.888C218.86 115.888 218.652 115.932 218.452 116.02C218.26 116.1 218.088 116.216 217.936 116.368C217.792 116.512 217.676 116.684 217.588 116.884C217.5 117.076 217.456 117.288 217.456 117.52V121H216.208ZM224.411 123.64V114.7H225.659V116.14L225.467 116.032C225.515 115.792 225.651 115.564 225.875 115.348C226.099 115.124 226.371 114.944 226.691 114.808C227.019 114.664 227.355 114.592 227.699 114.592C228.267 114.592 228.771 114.732 229.211 115.012C229.651 115.292 229.999 115.676 230.255 116.164C230.511 116.652 230.639 117.212 230.639 117.844C230.639 118.468 230.511 119.028 230.255 119.524C230.007 120.012 229.663 120.4 229.223 120.688C228.783 120.968 228.287 121.108 227.735 121.108C227.367 121.108 227.011 121.036 226.667 120.892C226.323 120.74 226.031 120.548 225.791 120.316C225.551 120.084 225.403 119.844 225.347 119.596L225.659 119.428V123.64H224.411ZM227.531 119.968C227.899 119.968 228.227 119.876 228.515 119.692C228.803 119.508 229.031 119.256 229.199 118.936C229.367 118.616 229.451 118.252 229.451 117.844C229.451 117.436 229.367 117.076 229.199 116.764C229.039 116.444 228.815 116.192 228.527 116.008C228.239 115.824 227.907 115.732 227.531 115.732C227.155 115.732 226.823 115.824 226.535 116.008C226.247 116.184 226.019 116.432 225.851 116.752C225.683 117.072 225.599 117.436 225.599 117.844C225.599 118.252 225.683 118.616 225.851 118.936C226.019 119.256 226.247 119.508 226.535 119.692C226.823 119.876 227.155 119.968 227.531 119.968ZM234.189 121.12C233.741 121.12 233.349 121.016 233.013 120.808C232.685 120.6 232.429 120.308 232.245 119.932C232.069 119.556 231.981 119.108 231.981 118.588V114.7H233.217V118.252C233.217 118.62 233.273 118.94 233.385 119.212C233.505 119.476 233.673 119.68 233.889 119.824C234.113 119.968 234.381 120.04 234.693 120.04C234.925 120.04 235.137 120.004 235.329 119.932C235.521 119.852 235.685 119.744 235.821 119.608C235.965 119.472 236.077 119.308 236.157 119.116C236.237 118.924 236.277 118.716 236.277 118.492V114.7H237.513V121H236.277V119.68L236.493 119.536C236.397 119.832 236.233 120.1 236.001 120.34C235.777 120.58 235.509 120.772 235.197 120.916C234.885 121.052 234.549 121.12 234.189 121.12ZM239.247 121V114.7H240.495V116.68L240.375 116.2C240.463 115.896 240.611 115.62 240.819 115.372C241.035 115.124 241.279 114.928 241.551 114.784C241.831 114.64 242.119 114.568 242.415 114.568C242.551 114.568 242.679 114.58 242.799 114.604C242.927 114.628 243.027 114.656 243.099 114.688L242.775 116.032C242.679 115.992 242.571 115.96 242.451 115.936C242.339 115.904 242.227 115.888 242.115 115.888C241.899 115.888 241.691 115.932 241.491 116.02C241.299 116.1 241.127 116.216 240.975 116.368C240.831 116.512 240.715 116.684 240.627 116.884C240.539 117.076 240.495 117.288 240.495 117.52V121H239.247ZM246.493 121.12C245.909 121.12 245.385 120.976 244.921 120.688C244.465 120.4 244.101 120.008 243.829 119.512C243.565 119.016 243.433 118.46 243.433 117.844C243.433 117.228 243.565 116.672 243.829 116.176C244.101 115.68 244.465 115.288 244.921 115C245.385 114.712 245.909 114.568 246.493 114.568C247.053 114.568 247.561 114.684 248.017 114.916C248.481 115.14 248.833 115.448 249.073 115.84L248.389 116.68C248.261 116.496 248.097 116.328 247.897 116.176C247.697 116.024 247.485 115.904 247.261 115.816C247.037 115.728 246.821 115.684 246.613 115.684C246.229 115.684 245.885 115.78 245.581 115.972C245.285 116.156 245.049 116.412 244.873 116.74C244.697 117.068 244.609 117.436 244.609 117.844C244.609 118.252 244.701 118.62 244.885 118.948C245.069 119.268 245.313 119.524 245.617 119.716C245.921 119.908 246.257 120.004 246.625 120.004C246.841 120.004 247.049 119.968 247.249 119.896C247.457 119.824 247.657 119.716 247.849 119.572C248.041 119.428 248.221 119.252 248.389 119.044L249.073 119.884C248.817 120.244 248.449 120.54 247.969 120.772C247.497 121.004 247.005 121.12 246.493 121.12ZM250.239 121V112.12H251.475V115.996L251.259 116.14C251.339 115.86 251.495 115.604 251.727 115.372C251.959 115.132 252.235 114.94 252.555 114.796C252.875 114.644 253.203 114.568 253.539 114.568C254.019 114.568 254.419 114.664 254.739 114.856C255.059 115.04 255.299 115.324 255.459 115.708C255.619 116.092 255.699 116.576 255.699 117.16V121H254.463V117.244C254.463 116.884 254.415 116.588 254.319 116.356C254.223 116.116 254.075 115.944 253.875 115.84C253.675 115.728 253.427 115.68 253.131 115.696C252.891 115.696 252.671 115.736 252.471 115.816C252.271 115.888 252.095 115.992 251.943 116.128C251.799 116.264 251.683 116.424 251.595 116.608C251.515 116.784 251.475 116.976 251.475 117.184V121H250.863C250.759 121 250.655 121 250.551 121C250.447 121 250.343 121 250.239 121ZM259.8 121.12C259.28 121.12 258.804 120.976 258.372 120.688C257.948 120.4 257.608 120.008 257.352 119.512C257.096 119.016 256.968 118.456 256.968 117.832C256.968 117.2 257.096 116.64 257.352 116.152C257.616 115.656 257.968 115.268 258.408 114.988C258.856 114.708 259.356 114.568 259.908 114.568C260.236 114.568 260.536 114.616 260.808 114.712C261.08 114.808 261.316 114.944 261.516 115.12C261.724 115.288 261.892 115.484 262.02 115.708C262.156 115.932 262.24 116.172 262.272 116.428L261.996 116.332V114.7H263.244V121H261.996V119.5L262.284 119.416C262.236 119.632 262.136 119.844 261.984 120.052C261.84 120.252 261.652 120.432 261.42 120.592C261.196 120.752 260.944 120.88 260.664 120.976C260.392 121.072 260.104 121.12 259.8 121.12ZM260.124 119.98C260.5 119.98 260.832 119.888 261.12 119.704C261.408 119.52 261.632 119.268 261.792 118.948C261.96 118.62 262.044 118.248 262.044 117.832C262.044 117.424 261.96 117.06 261.792 116.74C261.632 116.42 261.408 116.168 261.12 115.984C260.832 115.8 260.5 115.708 260.124 115.708C259.756 115.708 259.428 115.8 259.14 115.984C258.86 116.168 258.636 116.42 258.468 116.74C258.308 117.06 258.228 117.424 258.228 117.832C258.228 118.248 258.308 118.62 258.468 118.948C258.636 119.268 258.86 119.52 259.14 119.704C259.428 119.888 259.756 119.98 260.124 119.98ZM267.069 121.12C266.541 121.12 266.065 121.028 265.641 120.844C265.217 120.66 264.865 120.388 264.585 120.028L265.425 119.308C265.665 119.588 265.925 119.792 266.205 119.92C266.493 120.04 266.817 120.1 267.177 120.1C267.321 120.1 267.453 120.084 267.573 120.052C267.701 120.012 267.809 119.956 267.897 119.884C267.993 119.812 268.065 119.728 268.113 119.632C268.161 119.528 268.185 119.416 268.185 119.296C268.185 119.088 268.109 118.92 267.957 118.792C267.877 118.736 267.749 118.676 267.573 118.612C267.405 118.54 267.185 118.468 266.913 118.396C266.449 118.276 266.069 118.14 265.773 117.988C265.477 117.836 265.249 117.664 265.089 117.472C264.969 117.32 264.881 117.156 264.825 116.98C264.769 116.796 264.741 116.596 264.741 116.38C264.741 116.116 264.797 115.876 264.909 115.66C265.029 115.436 265.189 115.244 265.389 115.084C265.597 114.916 265.837 114.788 266.109 114.7C266.389 114.612 266.685 114.568 266.997 114.568C267.293 114.568 267.585 114.608 267.873 114.688C268.169 114.768 268.441 114.884 268.689 115.036C268.937 115.188 269.145 115.368 269.313 115.576L268.605 116.356C268.453 116.204 268.285 116.072 268.101 115.96C267.925 115.84 267.745 115.748 267.561 115.684C267.377 115.62 267.209 115.588 267.057 115.588C266.889 115.588 266.737 115.604 266.601 115.636C266.465 115.668 266.349 115.716 266.253 115.78C266.165 115.844 266.097 115.924 266.049 116.02C266.001 116.116 265.977 116.224 265.977 116.344C265.985 116.448 266.009 116.548 266.049 116.644C266.097 116.732 266.161 116.808 266.241 116.872C266.329 116.936 266.461 117.004 266.637 117.076C266.813 117.148 267.037 117.216 267.309 117.28C267.709 117.384 268.037 117.5 268.293 117.628C268.557 117.748 268.765 117.888 268.917 118.048C269.077 118.2 269.189 118.376 269.253 118.576C269.317 118.776 269.349 119 269.349 119.248C269.349 119.608 269.245 119.932 269.037 120.22C268.837 120.5 268.565 120.72 268.221 120.88C267.877 121.04 267.493 121.12 267.069 121.12ZM273.652 121.12C273.004 121.12 272.428 120.984 271.924 120.712C271.428 120.432 271.036 120.052 270.748 119.572C270.468 119.092 270.328 118.54 270.328 117.916C270.328 117.42 270.408 116.968 270.568 116.56C270.728 116.152 270.948 115.8 271.228 115.504C271.516 115.2 271.856 114.968 272.248 114.808C272.648 114.64 273.08 114.556 273.544 114.556C273.952 114.556 274.332 114.636 274.684 114.796C275.036 114.948 275.34 115.16 275.596 115.432C275.86 115.704 276.06 116.028 276.196 116.404C276.34 116.772 276.408 117.176 276.4 117.616L276.388 118.144H271.24L270.964 117.16H275.32L275.14 117.364V117.076C275.116 116.812 275.028 116.576 274.876 116.368C274.724 116.16 274.532 115.996 274.3 115.876C274.068 115.756 273.816 115.696 273.544 115.696C273.112 115.696 272.748 115.78 272.452 115.948C272.156 116.108 271.932 116.348 271.78 116.668C271.628 116.98 271.552 117.368 271.552 117.832C271.552 118.272 271.644 118.656 271.828 118.984C272.012 119.304 272.272 119.552 272.608 119.728C272.944 119.904 273.332 119.992 273.772 119.992C274.084 119.992 274.372 119.94 274.636 119.836C274.908 119.732 275.2 119.544 275.512 119.272L276.136 120.148C275.944 120.34 275.708 120.508 275.428 120.652C275.156 120.796 274.864 120.912 274.552 121C274.248 121.08 273.948 121.12 273.652 121.12Z" fill="white" fill-opacity="0.6"/>
<path d="M50.093 207V190.9H53.175L62.076 202.929H61.432C61.3707 202.454 61.317 201.994 61.271 201.549C61.225 201.089 61.179 200.629 61.133 200.169C61.1023 199.694 61.0717 199.211 61.041 198.72C61.0257 198.214 61.0103 197.685 60.995 197.133C60.9797 196.566 60.972 195.952 60.972 195.293V190.9H64.353V207H61.225L52.14 194.856L53.014 194.879C53.0907 195.676 53.152 196.359 53.198 196.926C53.2593 197.478 53.3053 197.961 53.336 198.375C53.3667 198.789 53.3897 199.149 53.405 199.456C53.4357 199.763 53.451 200.054 53.451 200.33C53.4663 200.606 53.474 200.897 53.474 201.204V207H50.093ZM73.7314 207.23C72.4894 207.23 71.3778 206.962 70.3964 206.425C69.4304 205.873 68.6638 205.122 68.0964 204.171C67.5444 203.22 67.2684 202.132 67.2684 200.905C67.2684 199.678 67.5444 198.597 68.0964 197.662C68.6638 196.711 69.4304 195.96 70.3964 195.408C71.3778 194.856 72.4894 194.58 73.7314 194.58C74.9581 194.58 76.0544 194.856 77.0204 195.408C78.0018 195.96 78.7684 196.711 79.3204 197.662C79.8724 198.597 80.1484 199.678 80.1484 200.905C80.1484 202.132 79.8724 203.22 79.3204 204.171C78.7684 205.122 78.0018 205.873 77.0204 206.425C76.0544 206.962 74.9581 207.23 73.7314 207.23ZM73.7314 204.378C74.3294 204.378 74.8661 204.232 75.3414 203.941C75.8168 203.634 76.1848 203.22 76.4454 202.699C76.7214 202.162 76.8594 201.564 76.8594 200.905C76.8594 200.23 76.7214 199.632 76.4454 199.111C76.1848 198.574 75.8168 198.16 75.3414 197.869C74.8661 197.562 74.3294 197.409 73.7314 197.409C73.1181 197.409 72.5738 197.562 72.0984 197.869C71.6231 198.176 71.2474 198.59 70.9714 199.111C70.6954 199.632 70.5651 200.23 70.5804 200.905C70.5651 201.564 70.6954 202.162 70.9714 202.699C71.2474 203.22 71.6231 203.634 72.0984 203.941C72.5738 204.232 73.1181 204.378 73.7314 204.378ZM84.9394 207L80.8684 194.833H84.2724L86.7564 203.113L86.2504 203.044L88.9874 196.581H90.9194L93.7714 203.067L93.2194 203.113L95.7034 194.833H99.1074L94.9674 207H92.5984L89.7234 200.077L90.0914 200.123L87.2854 207H84.9394ZM109.317 207V191.751H112.583V207H109.317ZM107.04 197.754V194.833H115.067V197.754H107.04ZM117.472 207V194.833H120.738V207H117.472ZM119.082 192.326C118.453 192.326 117.962 192.173 117.61 191.866C117.257 191.559 117.08 191.122 117.08 190.555C117.08 190.034 117.257 189.612 117.61 189.29C117.978 188.953 118.468 188.784 119.082 188.784C119.71 188.784 120.201 188.945 120.554 189.267C120.906 189.574 121.083 190.003 121.083 190.555C121.083 191.092 120.899 191.521 120.531 191.843C120.178 192.165 119.695 192.326 119.082 192.326ZM124.249 207V189.98H127.515V207H124.249ZM130.852 207V189.98H134.118V207H130.852ZM144.463 207L143.704 205.114L148.465 199.847C148.725 199.571 149.001 199.249 149.293 198.881C149.599 198.513 149.891 198.137 150.167 197.754C150.458 197.355 150.688 196.972 150.857 196.604C151.025 196.221 151.11 195.876 151.11 195.569C151.11 195.216 151.033 194.91 150.88 194.649C150.726 194.373 150.504 194.158 150.213 194.005C149.921 193.852 149.561 193.775 149.132 193.775C148.733 193.775 148.357 193.882 148.005 194.097C147.652 194.296 147.322 194.595 147.016 194.994C146.709 195.393 146.441 195.876 146.211 196.443L143.635 194.994C143.941 194.105 144.378 193.33 144.946 192.671C145.513 192.012 146.188 191.498 146.97 191.13C147.752 190.762 148.587 190.578 149.477 190.578C150.412 190.593 151.255 190.793 152.007 191.176C152.758 191.559 153.348 192.096 153.778 192.786C154.207 193.476 154.422 194.273 154.422 195.178C154.422 195.515 154.383 195.86 154.307 196.213C154.245 196.566 154.13 196.934 153.962 197.317C153.808 197.7 153.601 198.107 153.341 198.536C153.095 198.95 152.789 199.395 152.421 199.87C152.068 200.33 151.662 200.813 151.202 201.319L147.545 205.298L147.085 203.895H155.089V207H144.463ZM161.755 207.161C160.59 207.161 159.532 206.923 158.581 206.448C157.646 205.957 156.864 205.252 156.235 204.332L158.098 202.262C158.757 202.998 159.355 203.504 159.892 203.78C160.429 204.041 161.019 204.171 161.663 204.171C162.2 204.171 162.683 204.056 163.112 203.826C163.541 203.596 163.879 203.282 164.124 202.883C164.369 202.484 164.492 202.04 164.492 201.549C164.492 201.043 164.369 200.591 164.124 200.192C163.879 199.793 163.549 199.479 163.135 199.249C162.736 199.004 162.276 198.881 161.755 198.881C161.418 198.881 161.103 198.912 160.812 198.973C160.521 199.019 160.199 199.119 159.846 199.272C159.493 199.41 159.064 199.617 158.558 199.893L156.994 197.823L157.983 190.808H167.045V193.775H159.731L160.582 192.763L159.823 197.869L158.719 197.34C158.949 197.125 159.263 196.926 159.662 196.742C160.076 196.558 160.521 196.405 160.996 196.282C161.487 196.159 161.962 196.098 162.422 196.098C163.434 196.098 164.331 196.328 165.113 196.788C165.91 197.248 166.539 197.892 166.999 198.72C167.474 199.533 167.712 200.468 167.712 201.526C167.712 202.584 167.451 203.542 166.93 204.401C166.409 205.244 165.696 205.919 164.791 206.425C163.886 206.916 162.874 207.161 161.755 207.161ZM178.098 207V190.9H181.18L190.081 202.929H189.437C189.376 202.454 189.322 201.994 189.276 201.549C189.23 201.089 189.184 200.629 189.138 200.169C189.107 199.694 189.077 199.211 189.046 198.72C189.031 198.214 189.015 197.685 189 197.133C188.985 196.566 188.977 195.952 188.977 195.293V190.9H192.358V207H189.23L180.145 194.856L181.019 194.879C181.096 195.676 181.157 196.359 181.203 196.926C181.264 197.478 181.31 197.961 181.341 198.375C181.372 198.789 181.395 199.149 181.41 199.456C181.441 199.763 181.456 200.054 181.456 200.33C181.471 200.606 181.479 200.897 181.479 201.204V207H178.098ZM201.736 207.23C200.494 207.23 199.383 206.962 198.401 206.425C197.435 205.873 196.669 205.122 196.101 204.171C195.549 203.22 195.273 202.132 195.273 200.905C195.273 199.678 195.549 198.597 196.101 197.662C196.669 196.711 197.435 195.96 198.401 195.408C199.383 194.856 200.494 194.58 201.736 194.58C202.963 194.58 204.059 194.856 205.025 195.408C206.007 195.96 206.773 196.711 207.325 197.662C207.877 198.597 208.153 199.678 208.153 200.905C208.153 202.132 207.877 203.22 207.325 204.171C206.773 205.122 206.007 205.873 205.025 206.425C204.059 206.962 202.963 207.23 201.736 207.23ZM201.736 204.378C202.334 204.378 202.871 204.232 203.346 203.941C203.822 203.634 204.19 203.22 204.45 202.699C204.726 202.162 204.864 201.564 204.864 200.905C204.864 200.23 204.726 199.632 204.45 199.111C204.19 198.574 203.822 198.16 203.346 197.869C202.871 197.562 202.334 197.409 201.736 197.409C201.123 197.409 200.579 197.562 200.103 197.869C199.628 198.176 199.252 198.59 198.976 199.111C198.7 199.632 198.57 200.23 198.585 200.905C198.57 201.564 198.7 202.162 198.976 202.699C199.252 203.22 199.628 203.634 200.103 203.941C200.579 204.232 201.123 204.378 201.736 204.378ZM214.092 207L208.986 194.833H212.574L215.817 203.918L215.058 204.056L218.462 194.833H221.958L216.599 207H214.092ZM230.982 207L230.223 205.114L234.984 199.847C235.245 199.571 235.521 199.249 235.812 198.881C236.119 198.513 236.41 198.137 236.686 197.754C236.977 197.355 237.207 196.972 237.376 196.604C237.545 196.221 237.629 195.876 237.629 195.569C237.629 195.216 237.552 194.91 237.399 194.649C237.246 194.373 237.023 194.158 236.732 194.005C236.441 193.852 236.08 193.775 235.651 193.775C235.252 193.775 234.877 193.882 234.524 194.097C234.171 194.296 233.842 194.595 233.535 194.994C233.228 195.393 232.96 195.876 232.73 196.443L230.154 194.994C230.461 194.105 230.898 193.33 231.465 192.671C232.032 192.012 232.707 191.498 233.489 191.13C234.271 190.762 235.107 190.578 235.996 190.578C236.931 190.593 237.775 190.793 238.526 191.176C239.277 191.559 239.868 192.096 240.297 192.786C240.726 193.476 240.941 194.273 240.941 195.178C240.941 195.515 240.903 195.86 240.826 196.213C240.765 196.566 240.65 196.934 240.481 197.317C240.328 197.7 240.121 198.107 239.86 198.536C239.615 198.95 239.308 199.395 238.94 199.87C238.587 200.33 238.181 200.813 237.721 201.319L234.064 205.298L233.604 203.895H241.608V207H230.982ZM249.471 207.23C248.091 207.23 246.91 206.9 245.929 206.241C244.963 205.582 244.219 204.639 243.698 203.412C243.192 202.17 242.939 200.683 242.939 198.95C242.939 197.217 243.192 195.738 243.698 194.511C244.219 193.269 244.963 192.318 245.929 191.659C246.91 191 248.091 190.67 249.471 190.67C250.851 190.67 252.031 191 253.013 191.659C253.994 192.318 254.738 193.269 255.244 194.511C255.765 195.738 256.026 197.217 256.026 198.95C256.026 200.683 255.765 202.17 255.244 203.412C254.738 204.639 253.994 205.582 253.013 206.241C252.031 206.9 250.851 207.23 249.471 207.23ZM249.471 204.263C250.498 204.263 251.295 203.803 251.863 202.883C252.43 201.963 252.714 200.652 252.714 198.95C252.714 197.217 252.43 195.883 251.863 194.948C251.295 194.013 250.498 193.545 249.471 193.545C248.428 193.545 247.623 194.013 247.056 194.948C246.504 195.883 246.228 197.217 246.228 198.95C246.228 200.652 246.504 201.963 247.056 202.883C247.623 203.803 248.428 204.263 249.471 204.263ZM258.609 207L257.85 205.114L262.611 199.847C262.872 199.571 263.148 199.249 263.439 198.881C263.746 198.513 264.037 198.137 264.313 197.754C264.604 197.355 264.834 196.972 265.003 196.604C265.172 196.221 265.256 195.876 265.256 195.569C265.256 195.216 265.179 194.91 265.026 194.649C264.873 194.373 264.65 194.158 264.359 194.005C264.068 193.852 263.707 193.775 263.278 193.775C262.879 193.775 262.504 193.882 262.151 194.097C261.798 194.296 261.469 194.595 261.162 194.994C260.855 195.393 260.587 195.876 260.357 196.443L257.781 194.994C258.088 194.105 258.525 193.33 259.092 192.671C259.659 192.012 260.334 191.498 261.116 191.13C261.898 190.762 262.734 190.578 263.623 190.578C264.558 190.593 265.402 190.793 266.153 191.176C266.904 191.559 267.495 192.096 267.924 192.786C268.353 193.476 268.568 194.273 268.568 195.178C268.568 195.515 268.53 195.86 268.453 196.213C268.392 196.566 268.277 196.934 268.108 197.317C267.955 197.7 267.748 198.107 267.487 198.536C267.242 198.95 266.935 199.395 266.567 199.87C266.214 200.33 265.808 200.813 265.348 201.319L261.691 205.298L261.231 203.895H269.235V207H258.609ZM275.925 207.23C274.683 207.23 273.594 206.962 272.659 206.425C271.739 205.888 270.888 204.968 270.106 203.665L272.636 202.055C272.988 202.592 273.341 203.029 273.694 203.366C274.062 203.703 274.445 203.949 274.844 204.102C275.242 204.255 275.656 204.332 276.086 204.332C276.546 204.332 276.975 204.225 277.374 204.01C277.772 203.795 278.087 203.496 278.317 203.113C278.562 202.714 278.685 202.262 278.685 201.756C278.685 201.235 278.585 200.798 278.386 200.445C278.186 200.092 277.895 199.824 277.512 199.64C277.128 199.456 276.676 199.364 276.155 199.364C275.925 199.364 275.672 199.387 275.396 199.433C275.12 199.479 274.836 199.556 274.545 199.663C274.253 199.755 273.939 199.87 273.602 200.008L272.797 197.892L277.052 193.246L277.926 193.867L271.164 193.775V190.808H280.847L281.468 192.073L276.155 197.823L275.35 196.88C275.472 196.819 275.672 196.765 275.948 196.719C276.239 196.658 276.507 196.627 276.753 196.627C277.458 196.627 278.117 196.757 278.731 197.018C279.344 197.279 279.888 197.639 280.364 198.099C280.839 198.559 281.207 199.096 281.468 199.709C281.744 200.322 281.882 200.982 281.882 201.687C281.882 202.745 281.613 203.696 281.077 204.539C280.555 205.367 279.842 206.026 278.938 206.517C278.048 206.992 277.044 207.23 275.925 207.23Z" fill="white"/>
<rect x="451.172" y="69.2648" width="39.5576" height="16.7452" transform="rotate(-160 451.172 69.2648)" fill="black"/>
<path d="M350.837 71.3412C352.699 79.4577 359.058 86.3895 363.472 81.2158C367.419 76.5883 366.213 67.8795 363.472 61.4667C361.142 56.0158 357.941 51.3423 353.995 53.567C349.66 56.0119 349.28 64.5602 350.837 71.3412Z" fill="#26A12A" stroke="#26A12A" stroke-width="5"/>
<path d="M429.302 66.6785C431.748 58.7181 429.706 49.5355 423.297 51.8094C417.565 53.8432 414.255 61.9883 413.423 68.9126C412.715 74.7982 413.151 80.4461 417.68 80.492C422.657 80.5425 427.26 73.3291 429.302 66.6785Z" fill="#26A12A" stroke="#26A12A" stroke-width="5"/>
<path d="M359 81H420C420 81 429.177 118.534 429 143C428.832 166.307 437.537 186.647 420 202C402.076 217.692 377.073 217.52 359 202C341.271 186.775 349.187 166.369 349 143C348.804 118.475 359 81 359 81Z" fill="#CEF7D0" stroke="#26A12A" stroke-width="5"/>
<path d="M424 60L414 84" stroke="#CEF7D0" stroke-width="5"/>
<path d="M363 84L355 62" stroke="#CEF7D0" stroke-width="5"/>
<path d="M397.303 143.678C399.748 135.718 397.706 126.535 391.297 128.809C385.565 130.843 382.255 138.988 381.423 145.913C380.715 151.798 381.151 157.446 385.68 157.492C390.657 157.542 395.26 150.329 397.303 143.678Z" fill="#26A12A" stroke="#26A12A" stroke-width="5"/>
<path d="M384 160L393 138" stroke="#CEF7D0"/>
<rect x="394.268" y="48.9322" width="26.8898" height="16.7452" transform="rotate(-160 394.268 48.9322)" fill="black"/>
<rect x="498.268" y="84.9322" width="26.8898" height="16.7452" transform="rotate(-160 498.268 84.9322)" fill="black"/>
</svg>
